<?xml version="1.0" encoding="UTF-8" standalone="no"?>
<svg
   version="1.1"
   viewBox="0 0 460 325"
   fill="none"
   stroke="none"
   stroke-linecap="square"
   stroke-miterlimit="10"
   id="svg82"
   sodipodi:docname="analysis_schematic.svg"
   width="460"
   height="325"
   inkscape:version="1.3.2 (1:1.3.2+202311252150+091e20ef0f)"
   xmlns:inkscape="http://www.inkscape.org/namespaces/inkscape"
   xmlns:sodipodi="http://sodipodi.sourceforge.net/DTD/sodipodi-0.dtd"
   xmlns="http://www.w3.org/2000/svg"
   xmlns:svg="http://www.w3.org/2000/svg">
  <defs
     id="defs82" />
  <sodipodi:namedview
     id="namedview82"
     pagecolor="#ffffff"
     bordercolor="#666666"
     borderopacity="1.0"
     inkscape:showpageshadow="2"
     inkscape:pageopacity="0.0"
     inkscape:pagecheckerboard="0"
     inkscape:deskcolor="#d1d1d1"
     inkscape:zoom="0.975"
     inkscape:cx="538.46154"
     inkscape:cy="309.74359"
     inkscape:window-width="1920"
     inkscape:window-height="1016"
     inkscape:window-x="0"
     inkscape:window-y="0"
     inkscape:window-maximized="1"
     inkscape:current-layer="g82" />
  <clipPath
     id="p.0">
    <path
       d="M 0,0 H 960 V 540 H 0 Z"
       clip-rule="nonzero"
       id="path1" />
  </clipPath>
  <g
     clip-path="url(#p.0)"
     id="g82">
    <path
       fill="#595959"
       d="M 8.38846,41.33858 H 450.71918 V 311.38582 H 8.38846 Z"
       fill-rule="evenodd"
       id="path3" />
    <path
       fill="#bf9000"
       d="m 82.87402,41.33858 h 367.5905 V 311.38582 H 82.87402 Z"
       fill-rule="evenodd"
       id="path4" />
    <path
       fill="#674ea7"
       d="m 89.20996,46.84777 h 355.4331 V 179.82415 H 89.20996 Z"
       fill-rule="evenodd"
       id="path5" />
    <path
       fill="#3c78d8"
       d="m 93.55905,50.46982 h 345.16537 v 69.32283 H 93.55905 Z"
       fill-rule="evenodd"
       id="path6" />
    <path
       fill="#6aa84f"
       d="m 97.96326,54.83127 h 143.90552 v 60.12598 H 97.96326 Z"
       fill-rule="evenodd"
       id="path7" />
    <path
       fill="#eeeeee"
       d="m 103.75592,68.85318 v 0 c 0,-4.34009 3.51831,-7.85843 7.8584,-7.85843 h 118.01544 c 2.0842,0 4.08301,0.82794 5.55676,2.30168 1.47373,1.47374 2.30167,3.47257 2.30167,5.55675 v 31.43275 c 0,4.34009 -3.51834,7.85843 -7.85843,7.85843 H 111.61432 c -4.34009,0 -7.8584,-3.51834 -7.8584,-7.85843 z"
       fill-rule="evenodd"
       id="path8" />
    <path
       stroke="#595959"
       stroke-width="1"
       stroke-linejoin="round"
       stroke-linecap="butt"
       d="m 103.75592,68.85318 v 0 c 0,-4.34009 3.51831,-7.85843 7.8584,-7.85843 h 118.01544 c 2.0842,0 4.08301,0.82794 5.55676,2.30168 1.47373,1.47374 2.30167,3.47257 2.30167,5.55675 v 31.43275 c 0,4.34009 -3.51834,7.85843 -7.85843,7.85843 H 111.61432 c -4.34009,0 -7.8584,-3.51834 -7.8584,-7.85843 z"
       fill-rule="evenodd"
       id="path9" />
    <path
       fill="#595959"
       d="m 152.44626,71.00768 1.8125,7.76562 h 0.0312 l 1.98437,-7.76562 h 2.34375 l 1.95313,7.85937 h 0.0312 l 1.875,-7.85937 h 2.46875 l -3.07813,11.42187 h -2.5 l -1.92187,-7.78125 h -0.0312 l -1.90625,7.78125 h -2.54688 l -3.03125,-11.42187 z m 18.77344,-0.28125 q 1.9375,0 3.3125,1.10937 1.375,1.09375 1.60937,3 h -2.4375 q -0.15625,-0.89062 -0.89062,-1.4375 -0.71875,-0.5625 -1.60938,-0.5625 -1.46875,0 -2.28125,1.07813 -0.8125,1.07812 -0.8125,2.84375 0,1.70312 0.79688,2.76562 0.8125,1.0625 2.3125,1.0625 1.07812,0 1.75,-0.67187 0.67187,-0.67188 0.82812,-1.89063 h 2.4375 q -0.21875,2.1875 -1.57812,3.4375 -1.35938,1.25 -3.4375,1.25 -1.65625,0 -2.9375,-0.75 -1.28125,-0.76562 -1.98438,-2.14062 -0.70312,-1.375 -0.70312,-3.0625 0,-2.625 1.53125,-4.32813 1.54687,-1.70312 4.09375,-1.70312 z m 10.26562,0.28125 2.67188,7.84375 h 0.0312 l 2.53125,-7.8125 0.0156,-0.0312 h 3.51563 V 82.4296 h -2.34375 v -8.09375 h -0.0312 l -2.79688,8.09375 h -1.9375 l -2.8125,-8.01562 h -0.0312 V 82.4296 H 177.9541 V 71.00773 Z"
       fill-rule="nonzero"
       id="path10" />
    <path
       fill="#595959"
       d="m 130.37936,89.11955 q -0.89062,1.40625 -1.32812,2.90625 -0.42188,1.48437 -0.42188,3.25 0,1.78125 0.42188,3.28125 0.4375,1.5 1.32812,2.95312 h -0.85937 q -1.14063,-1.78125 -1.625,-3.25 -0.46875,-1.48437 -0.46875,-2.98437 0,-1.5625 0.53125,-3.17188 0.53125,-1.60937 1.5625,-2.98437 z m 3.01169,2.70312 q 1.39062,0 2.0625,0.54688 0.6875,0.53125 0.75,1.60937 h -1.125 v -0.0156 q -0.0469,-0.54688 -0.48438,-0.84375 -0.4375,-0.29688 -1.10937,-0.29688 -0.6875,0 -1.09375,0.23438 -0.39063,0.21875 -0.39063,0.64062 0,0.375 0.34375,0.625 0.35938,0.23438 1.0625,0.375 l 1.0625,0.25 q 1,0.21875 1.51563,0.6875 0.53125,0.45313 0.53125,1.21875 0,1.01563 -0.79688,1.59375 -0.78125,0.57813 -2.14062,0.57813 -1.3125,0 -2.09375,-0.57813 -0.76563,-0.59375 -0.82813,-1.75 h 1.14063 q 0.0156,0.64063 0.5,0.98438 0.5,0.34375 1.34375,0.34375 0.82812,0 1.25,-0.25 0.42187,-0.26563 0.42187,-0.78125 0,-0.45313 -0.42187,-0.71875 -0.42188,-0.28125 -1.71875,-0.53125 -1.29688,-0.26563 -1.82813,-0.71875 -0.53125,-0.46875 -0.53125,-1.25 0,-0.90625 0.73438,-1.42188 0.73437,-0.53125 1.84375,-0.53125 z m 7.24219,0 q 1.48437,0 2.29687,1.07813 0.82813,1.0625 0.82813,2.73437 v 0.125 h -5.17188 v 0.0937 q 0,0.98438 0.57813,1.57813 0.57812,0.59375 1.57812,0.59375 0.75,0 1.1875,-0.34375 0.45313,-0.35938 0.59375,-1 h 1.125 q -0.23437,1.14062 -1.01562,1.75 -0.76563,0.59375 -1.9375,0.59375 -1.07813,0 -1.82813,-0.48438 -0.75,-0.48437 -1.10937,-1.35937 -0.35938,-0.89063 -0.35938,-1.79688 0,-1.53125 0.90625,-2.54687 0.92188,-1.01563 2.32813,-1.01563 z m -2.04688,2.9375 h 3.96875 q -0.0625,-0.84375 -0.625,-1.39062 -0.54687,-0.54688 -1.375,-0.54688 -0.78125,0 -1.34375,0.53125 -0.54687,0.51563 -0.625,1.40625 z m 9.20554,-2.9375 q 1.48437,0 2.29687,1.07813 0.82813,1.0625 0.82813,2.73437 v 0.125 h -5.17188 v 0.0937 q 0,0.98438 0.57813,1.57813 0.57812,0.59375 1.57812,0.59375 0.75,0 1.1875,-0.34375 0.45313,-0.35938 0.59375,-1 h 1.125 q -0.23437,1.14062 -1.01562,1.75 -0.76563,0.59375 -1.9375,0.59375 -1.07813,0 -1.82813,-0.48438 -0.75,-0.48437 -1.10937,-1.35937 -0.35938,-0.89063 -0.35938,-1.79688 0,-1.53125 0.90625,-2.54687 0.92188,-1.01563 2.32813,-1.01563 z m -2.04688,2.9375 h 3.96875 q -0.0625,-0.84375 -0.625,-1.39062 -0.54687,-0.54688 -1.375,-0.54688 -0.78125,0 -1.34375,0.53125 -0.54687,0.51563 -0.625,1.40625 z m 12.50241,-5.40625 v 9.51563 h -1.14062 v -0.9375 h -0.0312 q -0.26563,0.54687 -0.84375,0.82812 -0.57813,0.26563 -1.34375,0.26563 -1.45313,0 -2.3125,-1 -0.85938,-1 -0.85938,-2.625 0,-1.59375 0.82813,-2.57813 0.84375,-1 2.3125,-1 0.67187,0 1.28125,0.28125 0.60937,0.26563 0.9375,0.79688 h 0.0312 v -3.54688 z m -5.34375,6.125 q 0,1.10938 0.57813,1.82813 0.57812,0.71875 1.5625,0.71875 1,0 1.54687,-0.71875 0.5625,-0.71875 0.5625,-1.875 0,-1.17188 -0.57812,-1.89063 -0.5625,-0.71875 -1.60938,-0.71875 -0.98437,0 -1.53125,0.71875 -0.53125,0.70313 -0.53125,1.9375 z m 14.68167,-6.0625 v 9.45313 h -1.14062 v -6.76563 h -2.45313 v -0.90625 h 0.0469 q 1.1875,0 1.84375,-0.42187 0.65625,-0.4375 0.82812,-1.35938 z m 5.2406,7.96875 v 1.42188 q 0,0.73437 -0.35937,1.26562 -0.35938,0.53125 -1.09375,0.75 v -0.65625 q 0.34375,-0.125 0.54687,-0.45312 0.21875,-0.32813 0.21875,-0.76563 v -0.0781 h -0.78125 v -1.48438 z m 8.4841,-5.5625 q 0.71875,0 1.25,0.3125 0.53125,0.3125 0.8125,0.82813 h 0.0156 v -0.98438 h 1.0625 v 6.375 q 0,1.625 -0.78125,2.46875 -0.78125,0.84375 -2.40625,0.84375 -1.1875,0 -2,-0.53125 -0.8125,-0.51562 -0.85938,-1.48437 h 1.125 q 0.0312,0.51562 0.5625,0.8125 0.54688,0.29687 1.21875,0.29687 1.01563,0 1.54688,-0.67187 0.53125,-0.65625 0.53125,-1.95313 v -0.4375 h -0.0312 q -0.26563,0.57813 -0.84375,0.92188 -0.57813,0.32812 -1.3125,0.32812 -1.39063,0 -2.23438,-0.95312 -0.82812,-0.96875 -0.82812,-2.53125 0,-1.57813 0.82812,-2.60938 0.84375,-1.03125 2.34375,-1.03125 z m -1.98437,3.5 q 0,1.23438 0.51562,1.9375 0.51563,0.6875 1.4375,0.6875 0.9375,0 1.48438,-0.71875 0.5625,-0.73437 0.5625,-1.9375 0,-1.10937 -0.51563,-1.78125 -0.51562,-0.6875 -1.45312,-0.6875 -0.95313,0 -1.5,0.6875 -0.53125,0.67188 -0.53125,1.8125 z m 9.70013,-3.5 q 1.48438,0 2.29688,1.07813 0.82812,1.0625 0.82812,2.73437 v 0.125 h -5.17187 v 0.0937 q 0,0.98438 0.57812,1.57813 0.57813,0.59375 1.57813,0.59375 0.75,0 1.1875,-0.34375 0.45312,-0.35938 0.59375,-1 h 1.125 q -0.23438,1.14062 -1.01563,1.75 -0.76562,0.59375 -1.9375,0.59375 -1.07812,0 -1.82812,-0.48438 -0.75,-0.48437 -1.10938,-1.35937 -0.35937,-0.89063 -0.35937,-1.79688 0,-1.53125 0.90625,-2.54687 0.92187,-1.01563 2.32812,-1.01563 z m -2.04687,2.9375 h 3.96875 q -0.0625,-0.84375 -0.625,-1.39062 -0.54688,-0.54688 -1.375,-0.54688 -0.78125,0 -1.34375,0.53125 -0.54688,0.51563 -0.625,1.40625 z m 9.67428,-2.9375 q 1.25,0 1.8125,0.64063 0.5625,0.64062 0.5625,1.8125 v 4.59375 h -1.14062 v -4.70313 q 0,-0.59375 -0.375,-0.96875 -0.375,-0.375 -1.03125,-0.375 -0.95313,0 -1.5,0.59375 -0.53125,0.57813 -0.53125,1.51563 v 3.9375 h -1.125 v -6.89063 h 1.0625 v 1.09375 h 0.0312 q 0.375,-0.64062 0.92187,-0.9375 0.54688,-0.3125 1.3125,-0.3125 z m 11.67798,-2.40625 v 9.45313 h -1.14062 v -6.76563 h -2.45313 v -0.90625 h 0.0469 q 1.1875,0 1.84375,-0.42187 0.65625,-0.4375 0.82812,-1.35938 z m 3.39685,-0.29687 q 1.0625,1.64062 1.57813,3.14062 0.51562,1.5 0.51562,3.10938 0,1.60937 -0.54687,3.20312 -0.53125,1.57813 -1.54688,2.9375 h -0.85937 q 0.89062,-1.40625 1.3125,-2.89062 0.4375,-1.5 0.4375,-3.25 0,-1.78125 -0.4375,-3.28125 -0.42188,-1.51563 -1.3125,-2.96875 z"
       fill-rule="nonzero"
       id="path11" />
    <path
       fill="#eeeeee"
       d="m 103.75592,134.48834 v 0 c 0,-4.34009 3.51831,-7.85841 7.8584,-7.85841 h 118.01544 c 2.0842,0 4.08301,0.82792 5.55676,2.30166 1.47373,1.47374 2.30167,3.47257 2.30167,5.55675 v 31.43275 c 0,4.34009 -3.51834,7.85843 -7.85843,7.85843 H 111.61432 c -4.34009,0 -7.8584,-3.51834 -7.8584,-7.85843 z"
       fill-rule="evenodd"
       id="path12" />
    <path
       stroke="#595959"
       stroke-width="1"
       stroke-linejoin="round"
       stroke-linecap="butt"
       d="m 103.75592,134.48834 v 0 c 0,-4.34009 3.51831,-7.85841 7.8584,-7.85841 h 118.01544 c 2.0842,0 4.08301,0.82792 5.55676,2.30166 1.47373,1.47374 2.30167,3.47257 2.30167,5.55675 v 31.43275 c 0,4.34009 -3.51834,7.85843 -7.85843,7.85843 H 111.61432 c -4.34009,0 -7.8584,-3.51834 -7.8584,-7.85843 z"
       fill-rule="evenodd"
       id="path13" />
    <path
       fill="#595959"
       d="m 152.44626,136.64285 1.8125,7.76562 h 0.0312 l 1.98437,-7.76562 h 2.34375 l 1.95313,7.85937 h 0.0312 l 1.875,-7.85937 h 2.46875 l -3.07813,11.42187 h -2.5 l -1.92187,-7.78125 h -0.0312 l -1.90625,7.78125 h -2.54688 l -3.03125,-11.42187 z m 18.77344,-0.28125 q 1.9375,0 3.3125,1.10937 1.375,1.09375 1.60937,3 h -2.4375 q -0.15625,-0.89062 -0.89062,-1.4375 -0.71875,-0.5625 -1.60938,-0.5625 -1.46875,0 -2.28125,1.07813 -0.8125,1.07812 -0.8125,2.84375 0,1.70312 0.79688,2.76562 0.8125,1.0625 2.3125,1.0625 1.07812,0 1.75,-0.67187 0.67187,-0.67188 0.82812,-1.89063 h 2.4375 q -0.21875,2.1875 -1.57812,3.4375 -1.35938,1.25 -3.4375,1.25 -1.65625,0 -2.9375,-0.75 -1.28125,-0.76562 -1.98438,-2.14062 -0.70312,-1.375 -0.70312,-3.0625 0,-2.625 1.53125,-4.32813 1.54687,-1.70312 4.09375,-1.70312 z m 10.26562,0.28125 2.67188,7.84375 h 0.0312 l 2.53125,-7.8125 0.0156,-0.0312 h 3.51563 v 11.42187 h -2.34375 v -8.09375 h -0.0312 l -2.79688,8.09375 h -1.9375 l -2.8125,-8.01562 h -0.0312 v 8.01562 H 177.9541 V 136.6429 Z"
       fill-rule="nonzero"
       id="path14" />
    <path
       fill="#595959"
       d="m 130.37936,154.75471 q -0.89062,1.40625 -1.32812,2.90625 -0.42188,1.48437 -0.42188,3.25 0,1.78125 0.42188,3.28125 0.4375,1.5 1.32812,2.95312 h -0.85937 q -1.14063,-1.78125 -1.625,-3.25 -0.46875,-1.48437 -0.46875,-2.98437 0,-1.5625 0.53125,-3.17188 0.53125,-1.60937 1.5625,-2.98437 z m 3.01169,2.70312 q 1.39062,0 2.0625,0.54688 0.6875,0.53125 0.75,1.60937 h -1.125 v -0.0156 q -0.0469,-0.54688 -0.48438,-0.84375 -0.4375,-0.29688 -1.10937,-0.29688 -0.6875,0 -1.09375,0.23438 -0.39063,0.21875 -0.39063,0.64062 0,0.375 0.34375,0.625 0.35938,0.23438 1.0625,0.375 l 1.0625,0.25 q 1,0.21875 1.51563,0.6875 0.53125,0.45313 0.53125,1.21875 0,1.01563 -0.79688,1.59375 -0.78125,0.57813 -2.14062,0.57813 -1.3125,0 -2.09375,-0.57813 -0.76563,-0.59375 -0.82813,-1.75 h 1.14063 q 0.0156,0.64063 0.5,0.98438 0.5,0.34375 1.34375,0.34375 0.82812,0 1.25,-0.25 0.42187,-0.26563 0.42187,-0.78125 0,-0.45313 -0.42187,-0.71875 -0.42188,-0.28125 -1.71875,-0.53125 -1.29688,-0.26563 -1.82813,-0.71875 -0.53125,-0.46875 -0.53125,-1.25 0,-0.90625 0.73438,-1.42188 0.73437,-0.53125 1.84375,-0.53125 z m 7.24219,0 q 1.48437,0 2.29687,1.07813 0.82813,1.0625 0.82813,2.73437 v 0.125 h -5.17188 v 0.0937 q 0,0.98438 0.57813,1.57813 0.57812,0.59375 1.57812,0.59375 0.75,0 1.1875,-0.34375 0.45313,-0.35938 0.59375,-1 h 1.125 q -0.23437,1.14062 -1.01562,1.75 -0.76563,0.59375 -1.9375,0.59375 -1.07813,0 -1.82813,-0.48438 -0.75,-0.48437 -1.10937,-1.35937 -0.35938,-0.89063 -0.35938,-1.79688 0,-1.53125 0.90625,-2.54687 0.92188,-1.01563 2.32813,-1.01563 z m -2.04688,2.9375 h 3.96875 q -0.0625,-0.84375 -0.625,-1.39062 -0.54687,-0.54688 -1.375,-0.54688 -0.78125,0 -1.34375,0.53125 -0.54687,0.51563 -0.625,1.40625 z m 9.20554,-2.9375 q 1.48437,0 2.29687,1.07813 0.82813,1.0625 0.82813,2.73437 v 0.125 h -5.17188 v 0.0937 q 0,0.98438 0.57813,1.57813 0.57812,0.59375 1.57812,0.59375 0.75,0 1.1875,-0.34375 0.45313,-0.35938 0.59375,-1 h 1.125 q -0.23437,1.14062 -1.01562,1.75 -0.76563,0.59375 -1.9375,0.59375 -1.07813,0 -1.82813,-0.48438 -0.75,-0.48437 -1.10937,-1.35937 -0.35938,-0.89063 -0.35938,-1.79688 0,-1.53125 0.90625,-2.54687 0.92188,-1.01563 2.32813,-1.01563 z m -2.04688,2.9375 h 3.96875 q -0.0625,-0.84375 -0.625,-1.39062 -0.54687,-0.54688 -1.375,-0.54688 -0.78125,0 -1.34375,0.53125 -0.54687,0.51563 -0.625,1.40625 z m 12.50241,-5.40625 v 9.51563 h -1.14062 v -0.9375 h -0.0312 q -0.26563,0.54687 -0.84375,0.82812 -0.57813,0.26563 -1.34375,0.26563 -1.45313,0 -2.3125,-1 -0.85938,-1 -0.85938,-2.625 0,-1.59375 0.82813,-2.57813 0.84375,-1 2.3125,-1 0.67187,0 1.28125,0.28125 0.60937,0.26563 0.9375,0.79688 h 0.0312 v -3.54688 z m -5.34375,6.125 q 0,1.10938 0.57813,1.82813 0.57812,0.71875 1.5625,0.71875 1,0 1.54687,-0.71875 0.5625,-0.71875 0.5625,-1.875 0,-1.17188 -0.57812,-1.89063 -0.5625,-0.71875 -1.60938,-0.71875 -0.98437,0 -1.53125,0.71875 -0.53125,0.70313 -0.53125,1.9375 z m 13.55667,-6.0625 q 1.3125,0 2.14063,0.75 0.82812,0.73438 0.82812,1.96875 0,0.98438 -0.54687,1.78125 -0.54688,0.78125 -2.32813,1.79688 -1.07812,0.625 -1.53125,1.125 -0.45312,0.48437 -0.54687,1.03125 h 4.84375 v 1 h -6.17188 q 0.10938,-1.17188 0.60938,-2.0625 0.51562,-0.89063 1.92187,-1.71875 1.64063,-1.01563 2.07813,-1.57813 0.45312,-0.57812 0.45312,-1.375 0,-0.75 -0.51562,-1.23437 -0.51563,-0.48438 -1.29688,-0.48438 -0.85937,0 -1.35937,0.64063 -0.48438,0.64062 -0.48438,1.60937 v 0.0937 h -1.14062 v -0.23437 q 0,-1.40625 0.82812,-2.25 0.84375,-0.85938 2.21875,-0.85938 z m 6.3656,7.96875 v 1.42188 q 0,0.73437 -0.35937,1.26562 -0.35938,0.53125 -1.09375,0.75 v -0.65625 q 0.34375,-0.125 0.54687,-0.45312 0.21875,-0.32813 0.21875,-0.76563 v -0.0781 h -0.78125 v -1.48438 z m 8.4841,-5.5625 q 0.71875,0 1.25,0.3125 0.53125,0.3125 0.8125,0.82813 h 0.0156 v -0.98438 h 1.0625 v 6.375 q 0,1.625 -0.78125,2.46875 -0.78125,0.84375 -2.40625,0.84375 -1.1875,0 -2,-0.53125 -0.8125,-0.51562 -0.85938,-1.48437 h 1.125 q 0.0312,0.51562 0.5625,0.8125 0.54688,0.29687 1.21875,0.29687 1.01563,0 1.54688,-0.67187 0.53125,-0.65625 0.53125,-1.95313 v -0.4375 h -0.0312 q -0.26563,0.57813 -0.84375,0.92188 -0.57813,0.32812 -1.3125,0.32812 -1.39063,0 -2.23438,-0.95312 -0.82812,-0.96875 -0.82812,-2.53125 0,-1.57813 0.82812,-2.60938 0.84375,-1.03125 2.34375,-1.03125 z m -1.98437,3.5 q 0,1.23438 0.51562,1.9375 0.51563,0.6875 1.4375,0.6875 0.9375,0 1.48438,-0.71875 0.5625,-0.73437 0.5625,-1.9375 0,-1.10937 -0.51563,-1.78125 -0.51562,-0.6875 -1.45312,-0.6875 -0.95313,0 -1.5,0.6875 -0.53125,0.67188 -0.53125,1.8125 z m 9.70013,-3.5 q 1.48438,0 2.29688,1.07813 0.82812,1.0625 0.82812,2.73437 v 0.125 h -5.17187 v 0.0937 q 0,0.98438 0.57812,1.57813 0.57813,0.59375 1.57813,0.59375 0.75,0 1.1875,-0.34375 0.45312,-0.35938 0.59375,-1 h 1.125 q -0.23438,1.14062 -1.01563,1.75 -0.76562,0.59375 -1.9375,0.59375 -1.07812,0 -1.82812,-0.48438 -0.75,-0.48437 -1.10938,-1.35937 -0.35937,-0.89063 -0.35937,-1.79688 0,-1.53125 0.90625,-2.54687 0.92187,-1.01563 2.32812,-1.01563 z m -2.04687,2.9375 h 3.96875 q -0.0625,-0.84375 -0.625,-1.39062 -0.54688,-0.54688 -1.375,-0.54688 -0.78125,0 -1.34375,0.53125 -0.54688,0.51563 -0.625,1.40625 z m 9.67428,-2.9375 q 1.25,0 1.8125,0.64063 0.5625,0.64062 0.5625,1.8125 v 4.59375 h -1.14062 v -4.70313 q 0,-0.59375 -0.375,-0.96875 -0.375,-0.375 -1.03125,-0.375 -0.95313,0 -1.5,0.59375 -0.53125,0.57813 -0.53125,1.51563 v 3.9375 h -1.125 v -6.89063 h 1.0625 v 1.09375 h 0.0312 q 0.375,-0.64062 0.92187,-0.9375 0.54688,-0.3125 1.3125,-0.3125 z m 11.67798,-2.40625 v 9.45313 h -1.14062 v -6.76563 h -2.45313 v -0.90625 h 0.0469 q 1.1875,0 1.84375,-0.42187 0.65625,-0.4375 0.82812,-1.35938 z m 3.39685,-0.29687 q 1.0625,1.64062 1.57813,3.14062 0.51562,1.5 0.51562,3.10938 0,1.60937 -0.54687,3.20312 -0.53125,1.57813 -1.54688,2.9375 h -0.85937 q 0.89062,-1.40625 1.3125,-2.89062 0.4375,-1.5 0.4375,-3.25 0,-1.78125 -0.4375,-3.28125 -0.42188,-1.51563 -1.3125,-2.96875 z"
       fill-rule="nonzero"
       id="path15" />
    <path
       fill="#eeeeee"
       d="m 256.0105,68.85318 v 0 c 0,-4.34009 3.51831,-7.85843 7.8584,-7.85843 h 118.01544 c 2.08423,0 4.08301,0.82794 5.55676,2.30168 1.47376,1.47374 2.3017,3.47257 2.3017,5.55675 v 31.43275 c 0,4.34009 -3.51837,7.85843 -7.85846,7.85843 H 263.8689 c -4.34009,0 -7.8584,-3.51834 -7.8584,-7.85843 z"
       fill-rule="evenodd"
       id="path16" />
    <path
       stroke="#595959"
       stroke-width="1"
       stroke-linejoin="round"
       stroke-linecap="butt"
       d="m 256.0105,68.85318 v 0 c 0,-4.34009 3.51831,-7.85843 7.8584,-7.85843 h 118.01544 c 2.08423,0 4.08301,0.82794 5.55676,2.30168 1.47376,1.47374 2.3017,3.47257 2.3017,5.55675 v 31.43275 c 0,4.34009 -3.51837,7.85843 -7.85846,7.85843 H 263.8689 c -4.34009,0 -7.8584,-3.51834 -7.8584,-7.85843 z"
       fill-rule="evenodd"
       id="path17" />
    <path
       fill="#595959"
       d="m 304.70087,71.00768 1.8125,7.76562 h 0.0312 l 1.98437,-7.76562 h 2.34375 l 1.95313,7.85937 h 0.0312 l 1.875,-7.85937 h 2.46875 l -3.07813,11.42187 h -2.5 l -1.92187,-7.78125 h -0.0312 l -1.90625,7.78125 h -2.54688 l -3.03125,-11.42187 z m 18.77344,-0.28125 q 1.9375,0 3.3125,1.10937 1.375,1.09375 1.60937,3 h -2.4375 q -0.15625,-0.89062 -0.89062,-1.4375 -0.71875,-0.5625 -1.60938,-0.5625 -1.46875,0 -2.28125,1.07813 -0.8125,1.07812 -0.8125,2.84375 0,1.70312 0.79688,2.76562 0.8125,1.0625 2.3125,1.0625 1.07812,0 1.75,-0.67187 0.67187,-0.67188 0.82812,-1.89063 h 2.4375 q -0.21875,2.1875 -1.57812,3.4375 -1.35938,1.25 -3.4375,1.25 -1.65625,0 -2.9375,-0.75 -1.28125,-0.76562 -1.98438,-2.14062 -0.70312,-1.375 -0.70312,-3.0625 0,-2.625 1.53125,-4.32813 1.54687,-1.70312 4.09375,-1.70312 z m 10.26562,0.28125 2.67188,7.84375 h 0.0312 l 2.53125,-7.8125 0.0156,-0.0312 h 3.51563 V 82.4296 h -2.34375 v -8.09375 h -0.0312 l -2.79688,8.09375 h -1.9375 l -2.8125,-8.01562 h -0.0312 v 8.01562 h -2.34375 V 71.00773 Z"
       fill-rule="nonzero"
       id="path18" />
    <path
       fill="#595959"
       d="m 282.634,89.11955 q -0.89062,1.40625 -1.32812,2.90625 -0.42188,1.48437 -0.42188,3.25 0,1.78125 0.42188,3.28125 0.4375,1.5 1.32812,2.95312 h -0.85937 q -1.14063,-1.78125 -1.625,-3.25 -0.46875,-1.48437 -0.46875,-2.98437 0,-1.5625 0.53125,-3.17188 0.53125,-1.60937 1.5625,-2.98437 z m 3.01166,2.70312 q 1.39062,0 2.0625,0.54688 0.6875,0.53125 0.75,1.60937 h -1.125 v -0.0156 q -0.0469,-0.54688 -0.48438,-0.84375 -0.4375,-0.29688 -1.10937,-0.29688 -0.6875,0 -1.09375,0.23438 -0.39063,0.21875 -0.39063,0.64062 0,0.375 0.34375,0.625 0.35938,0.23438 1.0625,0.375 l 1.0625,0.25 q 1,0.21875 1.51563,0.6875 0.53125,0.45313 0.53125,1.21875 0,1.01563 -0.79688,1.59375 -0.78125,0.57813 -2.14062,0.57813 -1.3125,0 -2.09375,-0.57813 -0.76563,-0.59375 -0.82813,-1.75 h 1.14063 q 0.0156,0.64063 0.5,0.98438 0.5,0.34375 1.34375,0.34375 0.82812,0 1.25,-0.25 0.42187,-0.26563 0.42187,-0.78125 0,-0.45313 -0.42187,-0.71875 -0.42188,-0.28125 -1.71875,-0.53125 -1.29688,-0.26563 -1.82813,-0.71875 -0.53125,-0.46875 -0.53125,-1.25 0,-0.90625 0.73438,-1.42188 0.73437,-0.53125 1.84375,-0.53125 z m 7.24219,0 q 1.48437,0 2.29687,1.07813 0.82813,1.0625 0.82813,2.73437 v 0.125 h -5.17188 v 0.0937 q 0,0.98438 0.57813,1.57813 0.57812,0.59375 1.57812,0.59375 0.75,0 1.1875,-0.34375 0.45313,-0.35938 0.59375,-1 h 1.125 q -0.23437,1.14062 -1.01562,1.75 -0.76563,0.59375 -1.9375,0.59375 -1.07813,0 -1.82813,-0.48438 -0.75,-0.48437 -1.10937,-1.35937 -0.35938,-0.89063 -0.35938,-1.79688 0,-1.53125 0.90625,-2.54687 0.92188,-1.01563 2.32813,-1.01563 z m -2.04688,2.9375 h 3.96875 q -0.0625,-0.84375 -0.625,-1.39062 -0.54687,-0.54688 -1.375,-0.54688 -0.78125,0 -1.34375,0.53125 -0.54687,0.51563 -0.625,1.40625 z m 9.20557,-2.9375 q 1.48437,0 2.29687,1.07813 0.82813,1.0625 0.82813,2.73437 v 0.125 h -5.17188 v 0.0937 q 0,0.98438 0.57813,1.57813 0.57812,0.59375 1.57812,0.59375 0.75,0 1.1875,-0.34375 0.45313,-0.35938 0.59375,-1 h 1.125 q -0.23437,1.14062 -1.01562,1.75 -0.76563,0.59375 -1.9375,0.59375 -1.07813,0 -1.82813,-0.48438 -0.75,-0.48437 -1.10937,-1.35937 -0.35938,-0.89063 -0.35938,-1.79688 0,-1.53125 0.90625,-2.54687 0.92188,-1.01563 2.32813,-1.01563 z m -2.04688,2.9375 h 3.96875 q -0.0625,-0.84375 -0.625,-1.39062 -0.54687,-0.54688 -1.375,-0.54688 -0.78125,0 -1.34375,0.53125 -0.54687,0.51563 -0.625,1.40625 z m 12.50238,-5.40625 v 9.51563 h -1.14062 v -0.9375 h -0.0312 q -0.26563,0.54687 -0.84375,0.82812 -0.57813,0.26563 -1.34375,0.26563 -1.45313,0 -2.3125,-1 -0.85938,-1 -0.85938,-2.625 0,-1.59375 0.82813,-2.57813 0.84375,-1 2.3125,-1 0.67187,0 1.28125,0.28125 0.60937,0.26563 0.9375,0.79688 h 0.0312 v -3.54688 z m -5.34375,6.125 q 0,1.10938 0.57813,1.82813 0.57812,0.71875 1.5625,0.71875 1,0 1.54687,-0.71875 0.5625,-0.71875 0.5625,-1.875 0,-1.17188 -0.57812,-1.89063 -0.5625,-0.71875 -1.60938,-0.71875 -0.98437,0 -1.53125,0.71875 -0.53125,0.70313 -0.53125,1.9375 z m 14.6817,-6.0625 v 9.45313 h -1.14062 v -6.76563 h -2.45313 v -0.90625 h 0.0469 q 1.1875,0 1.84375,-0.42187 0.65625,-0.4375 0.82812,-1.35938 z m 5.2406,7.96875 v 1.42188 q 0,0.73437 -0.35937,1.26562 -0.35938,0.53125 -1.09375,0.75 v -0.65625 q 0.34375,-0.125 0.54687,-0.45312 0.21875,-0.32813 0.21875,-0.76563 v -0.0781 h -0.78125 v -1.48438 z m 8.48407,-5.5625 q 0.71875,0 1.25,0.3125 0.53125,0.3125 0.8125,0.82813 h 0.0156 v -0.98438 h 1.0625 v 6.375 q 0,1.625 -0.78125,2.46875 -0.78125,0.84375 -2.40625,0.84375 -1.1875,0 -2,-0.53125 -0.8125,-0.51562 -0.85938,-1.48437 h 1.125 q 0.0312,0.51562 0.5625,0.8125 0.54688,0.29687 1.21875,0.29687 1.01563,0 1.54688,-0.67187 0.53125,-0.65625 0.53125,-1.95313 v -0.4375 h -0.0312 q -0.26563,0.57813 -0.84375,0.92188 -0.57813,0.32812 -1.3125,0.32812 -1.39063,0 -2.23438,-0.95312 -0.82812,-0.96875 -0.82812,-2.53125 0,-1.57813 0.82812,-2.60938 0.84375,-1.03125 2.34375,-1.03125 z m -1.98437,3.5 q 0,1.23438 0.51562,1.9375 0.51563,0.6875 1.4375,0.6875 0.9375,0 1.48438,-0.71875 0.5625,-0.73437 0.5625,-1.9375 0,-1.10937 -0.51563,-1.78125 -0.51562,-0.6875 -1.45312,-0.6875 -0.95313,0 -1.5,0.6875 -0.53125,0.67188 -0.53125,1.8125 z m 9.70013,-3.5 q 1.48438,0 2.29688,1.07813 0.82812,1.0625 0.82812,2.73437 v 0.125 h -5.17187 v 0.0937 q 0,0.98438 0.57812,1.57813 0.57813,0.59375 1.57813,0.59375 0.75,0 1.1875,-0.34375 0.45312,-0.35938 0.59375,-1 h 1.125 q -0.23438,1.14062 -1.01563,1.75 -0.76562,0.59375 -1.9375,0.59375 -1.07812,0 -1.82812,-0.48438 -0.75,-0.48437 -1.10938,-1.35937 -0.35937,-0.89063 -0.35937,-1.79688 0,-1.53125 0.90625,-2.54687 0.92187,-1.01563 2.32812,-1.01563 z m -2.04687,2.9375 h 3.96875 q -0.0625,-0.84375 -0.625,-1.39062 -0.54688,-0.54688 -1.375,-0.54688 -0.78125,0 -1.34375,0.53125 -0.54688,0.51563 -0.625,1.40625 z m 9.67431,-2.9375 q 1.25,0 1.8125,0.64063 0.5625,0.64062 0.5625,1.8125 v 4.59375 h -1.14062 v -4.70313 q 0,-0.59375 -0.375,-0.96875 -0.375,-0.375 -1.03125,-0.375 -0.95313,0 -1.5,0.59375 -0.53125,0.57813 -0.53125,1.51563 v 3.9375 h -1.125 v -6.89063 h 1.0625 v 1.09375 h 0.0312 q 0.375,-0.64062 0.92187,-0.9375 0.54688,-0.3125 1.3125,-0.3125 z m 10.55298,-2.40625 q 1.3125,0 2.14063,0.75 0.82812,0.73438 0.82812,1.96875 0,0.98438 -0.54687,1.78125 -0.54688,0.78125 -2.32813,1.79688 -1.07812,0.625 -1.53125,1.125 -0.45312,0.48437 -0.54687,1.03125 h 4.84375 v 1 h -6.17188 q 0.10938,-1.17188 0.60938,-2.0625 0.51562,-0.89063 1.92187,-1.71875 1.64063,-1.01563 2.07813,-1.57813 0.45312,-0.57812 0.45312,-1.375 0,-0.75 -0.51562,-1.23437 -0.51563,-0.48438 -1.29688,-0.48438 -0.85937,0 -1.35937,0.64063 -0.48438,0.64062 -0.48438,1.60937 v 0.0937 h -1.14062 v -0.23437 q 0,-1.40625 0.82812,-2.25 0.84375,-0.85938 2.21875,-0.85938 z m 4.52185,-0.29687 q 1.0625,1.64062 1.57813,3.14062 0.51562,1.5 0.51562,3.10938 0,1.60937 -0.54687,3.20312 -0.53125,1.57813 -1.54688,2.9375 h -0.85937 q 0.89062,-1.40625 1.3125,-2.89062 0.4375,-1.5 0.4375,-3.25 0,-1.78125 -0.4375,-3.28125 -0.42188,-1.51563 -1.3125,-2.96875 z"
       fill-rule="nonzero"
       id="path19" />
    <path
       fill="#eeeeee"
       d="m 256.0105,134.48834 v 0 c 0,-4.34009 3.51831,-7.85841 7.8584,-7.85841 h 118.01544 c 2.08423,0 4.08301,0.82792 5.55676,2.30166 1.47376,1.47374 2.3017,3.47257 2.3017,5.55675 v 31.43275 c 0,4.34009 -3.51837,7.85843 -7.85846,7.85843 H 263.8689 c -4.34009,0 -7.8584,-3.51834 -7.8584,-7.85843 z"
       fill-rule="evenodd"
       id="path20" />
    <path
       stroke="#595959"
       stroke-width="1"
       stroke-linejoin="round"
       stroke-linecap="butt"
       d="m 256.0105,134.48834 v 0 c 0,-4.34009 3.51831,-7.85841 7.8584,-7.85841 h 118.01544 c 2.08423,0 4.08301,0.82792 5.55676,2.30166 1.47376,1.47374 2.3017,3.47257 2.3017,5.55675 v 31.43275 c 0,4.34009 -3.51837,7.85843 -7.85846,7.85843 H 263.8689 c -4.34009,0 -7.8584,-3.51834 -7.8584,-7.85843 z"
       fill-rule="evenodd"
       id="path21" />
    <path
       fill="#595959"
       d="m 304.70087,136.64285 1.8125,7.76562 h 0.0312 l 1.98437,-7.76562 h 2.34375 l 1.95313,7.85937 h 0.0312 l 1.875,-7.85937 h 2.46875 l -3.07813,11.42187 h -2.5 l -1.92187,-7.78125 h -0.0312 l -1.90625,7.78125 h -2.54688 l -3.03125,-11.42187 z m 18.77344,-0.28125 q 1.9375,0 3.3125,1.10937 1.375,1.09375 1.60937,3 h -2.4375 q -0.15625,-0.89062 -0.89062,-1.4375 -0.71875,-0.5625 -1.60938,-0.5625 -1.46875,0 -2.28125,1.07813 -0.8125,1.07812 -0.8125,2.84375 0,1.70312 0.79688,2.76562 0.8125,1.0625 2.3125,1.0625 1.07812,0 1.75,-0.67187 0.67187,-0.67188 0.82812,-1.89063 h 2.4375 q -0.21875,2.1875 -1.57812,3.4375 -1.35938,1.25 -3.4375,1.25 -1.65625,0 -2.9375,-0.75 -1.28125,-0.76562 -1.98438,-2.14062 -0.70312,-1.375 -0.70312,-3.0625 0,-2.625 1.53125,-4.32813 1.54687,-1.70312 4.09375,-1.70312 z m 10.26562,0.28125 2.67188,7.84375 h 0.0312 l 2.53125,-7.8125 0.0156,-0.0312 h 3.51563 v 11.42187 h -2.34375 v -8.09375 h -0.0312 l -2.79688,8.09375 h -1.9375 l -2.8125,-8.01562 h -0.0312 v 8.01562 h -2.34375 V 136.6429 Z"
       fill-rule="nonzero"
       id="path22" />
    <path
       fill="#595959"
       d="m 282.634,154.75471 q -0.89062,1.40625 -1.32812,2.90625 -0.42188,1.48437 -0.42188,3.25 0,1.78125 0.42188,3.28125 0.4375,1.5 1.32812,2.95312 h -0.85937 q -1.14063,-1.78125 -1.625,-3.25 -0.46875,-1.48437 -0.46875,-2.98437 0,-1.5625 0.53125,-3.17188 0.53125,-1.60937 1.5625,-2.98437 z m 3.01166,2.70312 q 1.39062,0 2.0625,0.54688 0.6875,0.53125 0.75,1.60937 h -1.125 v -0.0156 q -0.0469,-0.54688 -0.48438,-0.84375 -0.4375,-0.29688 -1.10937,-0.29688 -0.6875,0 -1.09375,0.23438 -0.39063,0.21875 -0.39063,0.64062 0,0.375 0.34375,0.625 0.35938,0.23438 1.0625,0.375 l 1.0625,0.25 q 1,0.21875 1.51563,0.6875 0.53125,0.45313 0.53125,1.21875 0,1.01563 -0.79688,1.59375 -0.78125,0.57813 -2.14062,0.57813 -1.3125,0 -2.09375,-0.57813 -0.76563,-0.59375 -0.82813,-1.75 h 1.14063 q 0.0156,0.64063 0.5,0.98438 0.5,0.34375 1.34375,0.34375 0.82812,0 1.25,-0.25 0.42187,-0.26563 0.42187,-0.78125 0,-0.45313 -0.42187,-0.71875 -0.42188,-0.28125 -1.71875,-0.53125 -1.29688,-0.26563 -1.82813,-0.71875 -0.53125,-0.46875 -0.53125,-1.25 0,-0.90625 0.73438,-1.42188 0.73437,-0.53125 1.84375,-0.53125 z m 7.24219,0 q 1.48437,0 2.29687,1.07813 0.82813,1.0625 0.82813,2.73437 v 0.125 h -5.17188 v 0.0937 q 0,0.98438 0.57813,1.57813 0.57812,0.59375 1.57812,0.59375 0.75,0 1.1875,-0.34375 0.45313,-0.35938 0.59375,-1 h 1.125 q -0.23437,1.14062 -1.01562,1.75 -0.76563,0.59375 -1.9375,0.59375 -1.07813,0 -1.82813,-0.48438 -0.75,-0.48437 -1.10937,-1.35937 -0.35938,-0.89063 -0.35938,-1.79688 0,-1.53125 0.90625,-2.54687 0.92188,-1.01563 2.32813,-1.01563 z m -2.04688,2.9375 h 3.96875 q -0.0625,-0.84375 -0.625,-1.39062 -0.54687,-0.54688 -1.375,-0.54688 -0.78125,0 -1.34375,0.53125 -0.54687,0.51563 -0.625,1.40625 z m 9.20557,-2.9375 q 1.48437,0 2.29687,1.07813 0.82813,1.0625 0.82813,2.73437 v 0.125 h -5.17188 v 0.0937 q 0,0.98438 0.57813,1.57813 0.57812,0.59375 1.57812,0.59375 0.75,0 1.1875,-0.34375 0.45313,-0.35938 0.59375,-1 h 1.125 q -0.23437,1.14062 -1.01562,1.75 -0.76563,0.59375 -1.9375,0.59375 -1.07813,0 -1.82813,-0.48438 -0.75,-0.48437 -1.10937,-1.35937 -0.35938,-0.89063 -0.35938,-1.79688 0,-1.53125 0.90625,-2.54687 0.92188,-1.01563 2.32813,-1.01563 z m -2.04688,2.9375 h 3.96875 q -0.0625,-0.84375 -0.625,-1.39062 -0.54687,-0.54688 -1.375,-0.54688 -0.78125,0 -1.34375,0.53125 -0.54687,0.51563 -0.625,1.40625 z m 12.50238,-5.40625 v 9.51563 h -1.14062 v -0.9375 h -0.0312 q -0.26563,0.54687 -0.84375,0.82812 -0.57813,0.26563 -1.34375,0.26563 -1.45313,0 -2.3125,-1 -0.85938,-1 -0.85938,-2.625 0,-1.59375 0.82813,-2.57813 0.84375,-1 2.3125,-1 0.67187,0 1.28125,0.28125 0.60937,0.26563 0.9375,0.79688 h 0.0312 v -3.54688 z m -5.34375,6.125 q 0,1.10938 0.57813,1.82813 0.57812,0.71875 1.5625,0.71875 1,0 1.54687,-0.71875 0.5625,-0.71875 0.5625,-1.875 0,-1.17188 -0.57812,-1.89063 -0.5625,-0.71875 -1.60938,-0.71875 -0.98437,0 -1.53125,0.71875 -0.53125,0.70313 -0.53125,1.9375 z m 13.5567,-6.0625 q 1.3125,0 2.14063,0.75 0.82812,0.73438 0.82812,1.96875 0,0.98438 -0.54687,1.78125 -0.54688,0.78125 -2.32813,1.79688 -1.07812,0.625 -1.53125,1.125 -0.45312,0.48437 -0.54687,1.03125 h 4.84375 v 1 h -6.17188 q 0.10938,-1.17188 0.60938,-2.0625 0.51562,-0.89063 1.92187,-1.71875 1.64063,-1.01563 2.07813,-1.57813 0.45312,-0.57812 0.45312,-1.375 0,-0.75 -0.51562,-1.23437 -0.51563,-0.48438 -1.29688,-0.48438 -0.85937,0 -1.35937,0.64063 -0.48438,0.64062 -0.48438,1.60937 v 0.0937 h -1.14062 v -0.23437 q 0,-1.40625 0.82812,-2.25 0.84375,-0.85938 2.21875,-0.85938 z m 6.3656,7.96875 v 1.42188 q 0,0.73437 -0.35937,1.26562 -0.35938,0.53125 -1.09375,0.75 v -0.65625 q 0.34375,-0.125 0.54687,-0.45312 0.21875,-0.32813 0.21875,-0.76563 v -0.0781 h -0.78125 v -1.48438 z m 8.48407,-5.5625 q 0.71875,0 1.25,0.3125 0.53125,0.3125 0.8125,0.82813 h 0.0156 v -0.98438 h 1.0625 v 6.375 q 0,1.625 -0.78125,2.46875 -0.78125,0.84375 -2.40625,0.84375 -1.1875,0 -2,-0.53125 -0.8125,-0.51562 -0.85938,-1.48437 h 1.125 q 0.0312,0.51562 0.5625,0.8125 0.54688,0.29687 1.21875,0.29687 1.01563,0 1.54688,-0.67187 0.53125,-0.65625 0.53125,-1.95313 v -0.4375 h -0.0312 q -0.26563,0.57813 -0.84375,0.92188 -0.57813,0.32812 -1.3125,0.32812 -1.39063,0 -2.23438,-0.95312 -0.82812,-0.96875 -0.82812,-2.53125 0,-1.57813 0.82812,-2.60938 0.84375,-1.03125 2.34375,-1.03125 z m -1.98437,3.5 q 0,1.23438 0.51562,1.9375 0.51563,0.6875 1.4375,0.6875 0.9375,0 1.48438,-0.71875 0.5625,-0.73437 0.5625,-1.9375 0,-1.10937 -0.51563,-1.78125 -0.51562,-0.6875 -1.45312,-0.6875 -0.95313,0 -1.5,0.6875 -0.53125,0.67188 -0.53125,1.8125 z m 9.70013,-3.5 q 1.48438,0 2.29688,1.07813 0.82812,1.0625 0.82812,2.73437 v 0.125 h -5.17187 v 0.0937 q 0,0.98438 0.57812,1.57813 0.57813,0.59375 1.57813,0.59375 0.75,0 1.1875,-0.34375 0.45312,-0.35938 0.59375,-1 h 1.125 q -0.23438,1.14062 -1.01563,1.75 -0.76562,0.59375 -1.9375,0.59375 -1.07812,0 -1.82812,-0.48438 -0.75,-0.48437 -1.10938,-1.35937 -0.35937,-0.89063 -0.35937,-1.79688 0,-1.53125 0.90625,-2.54687 0.92187,-1.01563 2.32812,-1.01563 z m -2.04687,2.9375 h 3.96875 q -0.0625,-0.84375 -0.625,-1.39062 -0.54688,-0.54688 -1.375,-0.54688 -0.78125,0 -1.34375,0.53125 -0.54688,0.51563 -0.625,1.40625 z m 9.67431,-2.9375 q 1.25,0 1.8125,0.64063 0.5625,0.64062 0.5625,1.8125 v 4.59375 h -1.14062 v -4.70313 q 0,-0.59375 -0.375,-0.96875 -0.375,-0.375 -1.03125,-0.375 -0.95313,0 -1.5,0.59375 -0.53125,0.57813 -0.53125,1.51563 v 3.9375 h -1.125 v -6.89063 h 1.0625 v 1.09375 h 0.0312 q 0.375,-0.64062 0.92187,-0.9375 0.54688,-0.3125 1.3125,-0.3125 z m 10.55298,-2.40625 q 1.3125,0 2.14063,0.75 0.82812,0.73438 0.82812,1.96875 0,0.98438 -0.54687,1.78125 -0.54688,0.78125 -2.32813,1.79688 -1.07812,0.625 -1.53125,1.125 -0.45312,0.48437 -0.54687,1.03125 h 4.84375 v 1 h -6.17188 q 0.10938,-1.17188 0.60938,-2.0625 0.51562,-0.89063 1.92187,-1.71875 1.64063,-1.01563 2.07813,-1.57813 0.45312,-0.57812 0.45312,-1.375 0,-0.75 -0.51562,-1.23437 -0.51563,-0.48438 -1.29688,-0.48438 -0.85937,0 -1.35937,0.64063 -0.48438,0.64062 -0.48438,1.60937 v 0.0937 h -1.14062 v -0.23437 q 0,-1.40625 0.82812,-2.25 0.84375,-0.85938 2.21875,-0.85938 z m 4.52185,-0.29687 q 1.0625,1.64062 1.57813,3.14062 0.51562,1.5 0.51562,3.10938 0,1.60937 -0.54687,3.20312 -0.53125,1.57813 -1.54688,2.9375 h -0.85937 q 0.89062,-1.40625 1.3125,-2.89062 0.4375,-1.5 0.4375,-3.25 0,-1.78125 -0.4375,-3.28125 -0.42188,-1.51563 -1.3125,-2.96875 z"
       fill-rule="nonzero"
       id="path23" />
    <path
       fill="#000000"
       fill-opacity="0"
       d="m 393.77954,123.68767 h 46.51965 v 30.51968 h -46.51965 z"
       fill-rule="evenodd"
       id="path24" />
    <path
       fill="#ffffff"
       d="m 405.5764,155.72766 v -2.40625 h 2.40625 v 2.40625 z m 8.01563,0 v -2.40625 h 2.39062 v 2.40625 z m 7.98437,0 v -2.40625 h 2.42188 v 2.40625 z"
       fill-rule="nonzero"
       id="path25" />
    <path
       fill="#000000"
       fill-opacity="0"
       d="m 392.21783,60.99475 h 46.51971 v 30.51968 h -46.51971 z"
       fill-rule="evenodd"
       id="path26" />
    <path
       fill="#ffffff"
       d="m 404.0147,93.03474 v -2.40625 h 2.40625 v 2.40625 z m 8.01562,0 v -2.40625 h 2.39063 v 2.40625 z m 7.98438,0 v -2.40625 h 2.42187 v 2.40625 z"
       fill-rule="nonzero"
       id="path27" />
    <path
       fill="#eeeeee"
       d="m 103.7533,200.1235 v 0 c 0,-4.34009 3.51831,-7.8584 7.8584,-7.8584 h 118.01544 c 2.0842,0 4.08301,0.82791 5.55676,2.30167 1.47373,1.47372 2.30167,3.47256 2.30167,5.55673 v 31.43277 c 0,4.34009 -3.51834,7.85843 -7.85843,7.85843 H 111.6117 c -4.34009,0 -7.8584,-3.51834 -7.8584,-7.85843 z"
       fill-rule="evenodd"
       id="path28" />
    <path
       stroke="#595959"
       stroke-width="1"
       stroke-linejoin="round"
       stroke-linecap="butt"
       d="m 103.7533,200.1235 v 0 c 0,-4.34009 3.51831,-7.8584 7.8584,-7.8584 h 118.01544 c 2.0842,0 4.08301,0.82791 5.55676,2.30167 1.47373,1.47372 2.30167,3.47256 2.30167,5.55673 v 31.43277 c 0,4.34009 -3.51834,7.85843 -7.85843,7.85843 H 111.6117 c -4.34009,0 -7.8584,-3.51834 -7.8584,-7.85843 z"
       fill-rule="evenodd"
       id="path29" />
    <path
       fill="#595959"
       d="m 152.44363,202.278 1.8125,7.76563 h 0.0312 l 1.98437,-7.76563 h 2.34375 l 1.95313,7.85938 h 0.0312 l 1.875,-7.85938 h 2.46875 l -3.07813,11.42188 h -2.5 l -1.92187,-7.78125 h -0.0312 l -1.90625,7.78125 H 152.9592 L 149.928,202.278 Z m 18.77344,-0.28125 q 1.9375,0 3.3125,1.10938 1.375,1.09375 1.60937,3 h -2.4375 q -0.15625,-0.89063 -0.89062,-1.4375 -0.71875,-0.5625 -1.60938,-0.5625 -1.46875,0 -2.28125,1.07812 -0.8125,1.07813 -0.8125,2.84375 0,1.70313 0.79688,2.76563 0.8125,1.0625 2.3125,1.0625 1.07812,0 1.75,-0.67188 0.67187,-0.67187 0.82812,-1.89062 h 2.4375 q -0.21875,2.1875 -1.57812,3.4375 -1.35938,1.25 -3.4375,1.25 -1.65625,0 -2.9375,-0.75 -1.28125,-0.76563 -1.98438,-2.14063 -0.70312,-1.375 -0.70312,-3.0625 0,-2.625 1.53125,-4.32812 1.54687,-1.70313 4.09375,-1.70313 z m 10.26562,0.28125 2.67188,7.84375 h 0.0312 l 2.53125,-7.8125 0.0156,-0.0312 h 3.51563 v 11.42188 h -2.34375 v -8.09375 h -0.0312 l -2.79688,8.09375 h -1.9375 l -2.8125,-8.01563 h -0.0312 v 8.01563 h -2.34375 V 202.278 Z"
       fill-rule="nonzero"
       id="path30" />
    <path
       fill="#595959"
       d="m 130.37674,220.3899 q -0.89063,1.40625 -1.32813,2.90625 -0.42187,1.48437 -0.42187,3.25 0,1.78125 0.42187,3.28125 0.4375,1.5 1.32813,2.95312 h -0.85938 q -1.14062,-1.78125 -1.625,-3.25 -0.46875,-1.48437 -0.46875,-2.98437 0,-1.5625 0.53125,-3.17188 0.53125,-1.60937 1.5625,-2.98437 z m 3.01169,2.70312 q 1.39062,0 2.0625,0.54688 0.6875,0.53125 0.75,1.60937 h -1.125 v -0.0156 q -0.0469,-0.54688 -0.48438,-0.84375 -0.4375,-0.29688 -1.10937,-0.29688 -0.6875,0 -1.09375,0.23438 -0.39063,0.21875 -0.39063,0.64062 0,0.375 0.34375,0.625 0.35938,0.23438 1.0625,0.375 l 1.0625,0.25 q 1,0.21875 1.51563,0.6875 0.53125,0.45313 0.53125,1.21875 0,1.01563 -0.79688,1.59375 -0.78125,0.57813 -2.14062,0.57813 -1.3125,0 -2.09375,-0.57813 -0.76563,-0.59375 -0.82813,-1.75 h 1.14063 q 0.0156,0.64063 0.5,0.98438 0.5,0.34375 1.34375,0.34375 0.82812,0 1.25,-0.25 0.42187,-0.26563 0.42187,-0.78125 0,-0.45313 -0.42187,-0.71875 -0.42188,-0.28125 -1.71875,-0.53125 -1.29688,-0.26563 -1.82813,-0.71875 -0.53125,-0.46875 -0.53125,-1.25 0,-0.90625 0.73438,-1.42188 0.73437,-0.53125 1.84375,-0.53125 z m 7.24219,0 q 1.48437,0 2.29687,1.07813 0.82813,1.0625 0.82813,2.73437 v 0.125 h -5.17188 v 0.0937 q 0,0.98438 0.57813,1.57813 0.57812,0.59375 1.57812,0.59375 0.75,0 1.1875,-0.34375 0.45313,-0.35938 0.59375,-1 h 1.125 q -0.23437,1.14062 -1.01562,1.75 -0.76563,0.59375 -1.9375,0.59375 -1.07813,0 -1.82813,-0.48438 -0.75,-0.48437 -1.10937,-1.35937 -0.35938,-0.89063 -0.35938,-1.79688 0,-1.53125 0.90625,-2.54687 0.92188,-1.01563 2.32813,-1.01563 z m -2.04688,2.9375 h 3.96875 q -0.0625,-0.84375 -0.625,-1.39062 -0.54687,-0.54688 -1.375,-0.54688 -0.78125,0 -1.34375,0.53125 -0.54687,0.51563 -0.625,1.40625 z m 9.20554,-2.9375 q 1.48437,0 2.29687,1.07813 0.82813,1.0625 0.82813,2.73437 v 0.125 h -5.17188 v 0.0937 q 0,0.98438 0.57813,1.57813 0.57812,0.59375 1.57812,0.59375 0.75,0 1.1875,-0.34375 0.45313,-0.35938 0.59375,-1 h 1.125 q -0.23437,1.14062 -1.01562,1.75 -0.76563,0.59375 -1.9375,0.59375 -1.07813,0 -1.82813,-0.48438 -0.75,-0.48437 -1.10937,-1.35937 -0.35938,-0.89063 -0.35938,-1.79688 0,-1.53125 0.90625,-2.54687 0.92188,-1.01563 2.32813,-1.01563 z m -2.04688,2.9375 h 3.96875 q -0.0625,-0.84375 -0.625,-1.39062 -0.54687,-0.54688 -1.375,-0.54688 -0.78125,0 -1.34375,0.53125 -0.54687,0.51563 -0.625,1.40625 z m 12.50241,-5.40625 v 9.51563 h -1.14062 v -0.9375 h -0.0312 q -0.26563,0.54687 -0.84375,0.82812 -0.57813,0.26563 -1.34375,0.26563 -1.45313,0 -2.3125,-1 -0.85938,-1 -0.85938,-2.625 0,-1.59375 0.82813,-2.57813 0.84375,-1 2.3125,-1 0.67187,0 1.28125,0.28125 0.60937,0.26563 0.9375,0.79688 h 0.0312 v -3.54688 z m -5.34375,6.125 q 0,1.10938 0.57813,1.82813 0.57812,0.71875 1.5625,0.71875 1,0 1.54687,-0.71875 0.5625,-0.71875 0.5625,-1.875 0,-1.17188 -0.57812,-1.89063 -0.5625,-0.71875 -1.60938,-0.71875 -0.98437,0 -1.53125,0.71875 -0.53125,0.70313 -0.53125,1.9375 z m 14.68167,-6.0625 v 9.45313 h -1.14062 v -6.76563 h -2.45313 v -0.90625 h 0.0469 q 1.1875,0 1.84375,-0.42187 0.65625,-0.4375 0.82812,-1.35938 z m 5.2406,7.96875 v 1.42188 q 0,0.73437 -0.35937,1.26562 -0.35938,0.53125 -1.09375,0.75 v -0.65625 q 0.34375,-0.125 0.54687,-0.45312 0.21875,-0.32813 0.21875,-0.76563 v -0.0781 h -0.78125 v -1.48438 z m 8.4841,-5.5625 q 0.71875,0 1.25,0.3125 0.53125,0.3125 0.8125,0.82813 h 0.0156 v -0.98438 h 1.0625 v 6.375 q 0,1.625 -0.78125,2.46875 -0.78125,0.84375 -2.40625,0.84375 -1.1875,0 -2,-0.53125 -0.8125,-0.51562 -0.85938,-1.48437 h 1.125 q 0.0312,0.51562 0.5625,0.8125 0.54688,0.29687 1.21875,0.29687 1.01563,0 1.54688,-0.67187 0.53125,-0.65625 0.53125,-1.95313 v -0.4375 h -0.0312 q -0.26563,0.57813 -0.84375,0.92188 -0.57813,0.32812 -1.3125,0.32812 -1.39063,0 -2.23438,-0.95312 -0.82812,-0.96875 -0.82812,-2.53125 0,-1.57813 0.82812,-2.60938 0.84375,-1.03125 2.34375,-1.03125 z m -1.98437,3.5 q 0,1.23438 0.51562,1.9375 0.51563,0.6875 1.4375,0.6875 0.9375,0 1.48438,-0.71875 0.5625,-0.73437 0.5625,-1.9375 0,-1.10937 -0.51563,-1.78125 -0.51562,-0.6875 -1.45312,-0.6875 -0.95313,0 -1.5,0.6875 -0.53125,0.67188 -0.53125,1.8125 z m 9.70013,-3.5 q 1.48438,0 2.29688,1.07813 0.82812,1.0625 0.82812,2.73437 v 0.125 h -5.17187 v 0.0937 q 0,0.98438 0.57812,1.57813 0.57813,0.59375 1.57813,0.59375 0.75,0 1.1875,-0.34375 0.45312,-0.35938 0.59375,-1 h 1.125 q -0.23438,1.14062 -1.01563,1.75 -0.76562,0.59375 -1.9375,0.59375 -1.07812,0 -1.82812,-0.48438 -0.75,-0.48437 -1.10938,-1.35937 -0.35937,-0.89063 -0.35937,-1.79688 0,-1.53125 0.90625,-2.54687 0.92187,-1.01563 2.32812,-1.01563 z m -2.04687,2.9375 h 3.96875 q -0.0625,-0.84375 -0.625,-1.39062 -0.54688,-0.54688 -1.375,-0.54688 -0.78125,0 -1.34375,0.53125 -0.54688,0.51563 -0.625,1.40625 z m 9.67428,-2.9375 q 1.25,0 1.8125,0.64063 0.5625,0.64062 0.5625,1.8125 v 4.59375 h -1.14062 v -4.70313 q 0,-0.59375 -0.375,-0.96875 -0.375,-0.375 -1.03125,-0.375 -0.95313,0 -1.5,0.59375 -0.53125,0.57813 -0.53125,1.51563 v 3.9375 h -1.125 v -6.89063 h 1.0625 v 1.09375 h 0.0312 q 0.375,-0.64062 0.92187,-0.9375 0.54688,-0.3125 1.3125,-0.3125 z m 11.67798,-2.40625 v 9.45313 h -1.14062 v -6.76563 h -2.45313 v -0.90625 h 0.0469 q 1.1875,0 1.84375,-0.42187 0.65625,-0.4375 0.82812,-1.35938 z m 3.39685,-0.29687 q 1.0625,1.64062 1.57813,3.14062 0.51562,1.5 0.51562,3.10938 0,1.60937 -0.54687,3.20312 -0.53125,1.57813 -1.54688,2.9375 h -0.85937 q 0.89062,-1.40625 1.3125,-2.89062 0.4375,-1.5 0.4375,-3.25 0,-1.78125 -0.4375,-3.28125 -0.42188,-1.51563 -1.3125,-2.96875 z"
       fill-rule="nonzero"
       id="path31" />
    <path
       fill="#eeeeee"
       d="m 103.7533,265.7587 v 0 c 0,-4.34009 3.51831,-7.85843 7.8584,-7.85843 h 118.01544 c 2.0842,0 4.08301,0.82794 5.55676,2.30167 1.47373,1.47375 2.30167,3.47256 2.30167,5.55676 v 31.43274 c 0,4.34009 -3.51834,7.85843 -7.85843,7.85843 H 111.6117 c -4.34009,0 -7.8584,-3.51834 -7.8584,-7.85843 z"
       fill-rule="evenodd"
       id="path32" />
    <path
       stroke="#595959"
       stroke-width="1"
       stroke-linejoin="round"
       stroke-linecap="butt"
       d="m 103.7533,265.7587 v 0 c 0,-4.34009 3.51831,-7.85843 7.8584,-7.85843 h 118.01544 c 2.0842,0 4.08301,0.82794 5.55676,2.30167 1.47373,1.47375 2.30167,3.47256 2.30167,5.55676 v 31.43274 c 0,4.34009 -3.51834,7.85843 -7.85843,7.85843 H 111.6117 c -4.34009,0 -7.8584,-3.51834 -7.8584,-7.85843 z"
       fill-rule="evenodd"
       id="path33" />
    <path
       fill="#595959"
       d="m 152.44363,267.91318 1.8125,7.76562 h 0.0312 l 1.98437,-7.76562 h 2.34375 l 1.95313,7.85937 h 0.0312 l 1.875,-7.85937 h 2.46875 l -3.07813,11.42187 h -2.5 l -1.92187,-7.78125 h -0.0312 l -1.90625,7.78125 h -2.54688 l -3.0312,-11.42187 z m 18.77344,-0.28125 q 1.9375,0 3.3125,1.10937 1.375,1.09375 1.60937,3 h -2.4375 q -0.15625,-0.89062 -0.89062,-1.4375 -0.71875,-0.5625 -1.60938,-0.5625 -1.46875,0 -2.28125,1.07813 -0.8125,1.07812 -0.8125,2.84375 0,1.70312 0.79688,2.76562 0.8125,1.0625 2.3125,1.0625 1.07812,0 1.75,-0.67187 0.67187,-0.67188 0.82812,-1.89063 h 2.4375 q -0.21875,2.1875 -1.57812,3.4375 -1.35938,1.25 -3.4375,1.25 -1.65625,0 -2.9375,-0.75 -1.28125,-0.76562 -1.98438,-2.14062 -0.70312,-1.375 -0.70312,-3.0625 0,-2.625 1.53125,-4.32813 1.54687,-1.70312 4.09375,-1.70312 z m 10.26562,0.28125 2.67188,7.84375 h 0.0312 l 2.53125,-7.8125 0.0156,-0.0312 h 3.51563 v 11.42187 h -2.34375 v -8.09375 h -0.0312 l -2.79688,8.09375 h -1.9375 l -2.8125,-8.01562 h -0.0312 v 8.01562 h -2.34375 v -11.42187 z"
       fill-rule="nonzero"
       id="path34" />
    <path
       fill="#595959"
       d="m 130.37674,286.02505 q -0.89063,1.40625 -1.32813,2.90625 -0.42187,1.48438 -0.42187,3.25 0,1.78125 0.42187,3.28125 0.4375,1.5 1.32813,2.95313 h -0.85938 q -1.14062,-1.78125 -1.625,-3.25 -0.46875,-1.48438 -0.46875,-2.98438 0,-1.5625 0.53125,-3.17187 0.53125,-1.60938 1.5625,-2.98438 z m 3.01169,2.70313 q 1.39062,0 2.0625,0.54687 0.6875,0.53125 0.75,1.60938 h -1.125 v -0.0156 q -0.0469,-0.54687 -0.48438,-0.84375 -0.4375,-0.29687 -1.10937,-0.29687 -0.6875,0 -1.09375,0.23437 -0.39063,0.21875 -0.39063,0.64063 0,0.375 0.34375,0.625 0.35938,0.23437 1.0625,0.375 l 1.0625,0.25 q 1,0.21875 1.51563,0.6875 0.53125,0.45312 0.53125,1.21875 0,1.01562 -0.79688,1.59375 -0.78125,0.57812 -2.14062,0.57812 -1.3125,0 -2.09375,-0.57812 -0.76563,-0.59375 -0.82813,-1.75 h 1.14063 q 0.0156,0.64062 0.5,0.98437 0.5,0.34375 1.34375,0.34375 0.82812,0 1.25,-0.25 0.42187,-0.26562 0.42187,-0.78125 0,-0.45312 -0.42187,-0.71875 -0.42188,-0.28125 -1.71875,-0.53125 -1.29688,-0.26562 -1.82813,-0.71875 -0.53125,-0.46875 -0.53125,-1.25 0,-0.90625 0.73438,-1.42187 0.73437,-0.53125 1.84375,-0.53125 z m 7.24219,0 q 1.48437,0 2.29687,1.07812 0.82813,1.0625 0.82813,2.73438 v 0.125 h -5.17188 v 0.0937 q 0,0.98437 0.57813,1.57812 0.57812,0.59375 1.57812,0.59375 0.75,0 1.1875,-0.34375 0.45313,-0.35937 0.59375,-1 h 1.125 q -0.23437,1.14063 -1.01562,1.75 -0.76563,0.59375 -1.9375,0.59375 -1.07813,0 -1.82813,-0.48437 -0.75,-0.48438 -1.10937,-1.35938 -0.35938,-0.89062 -0.35938,-1.79687 0,-1.53125 0.90625,-2.54688 0.92188,-1.01562 2.32813,-1.01562 z m -2.04688,2.9375 h 3.96875 q -0.0625,-0.84375 -0.625,-1.39063 -0.54687,-0.54687 -1.375,-0.54687 -0.78125,0 -1.34375,0.53125 -0.54687,0.51562 -0.625,1.40625 z m 9.20554,-2.9375 q 1.48437,0 2.29687,1.07812 0.82813,1.0625 0.82813,2.73438 v 0.125 h -5.17188 v 0.0937 q 0,0.98437 0.57813,1.57812 0.57812,0.59375 1.57812,0.59375 0.75,0 1.1875,-0.34375 0.45313,-0.35937 0.59375,-1 h 1.125 q -0.23437,1.14063 -1.01562,1.75 -0.76563,0.59375 -1.9375,0.59375 -1.07813,0 -1.82813,-0.48437 -0.75,-0.48438 -1.10937,-1.35938 -0.35938,-0.89062 -0.35938,-1.79687 0,-1.53125 0.90625,-2.54688 0.92188,-1.01562 2.32813,-1.01562 z m -2.04688,2.9375 h 3.96875 q -0.0625,-0.84375 -0.625,-1.39063 -0.54687,-0.54687 -1.375,-0.54687 -0.78125,0 -1.34375,0.53125 -0.54687,0.51562 -0.625,1.40625 z m 12.50241,-5.40625 v 9.51562 h -1.14062 v -0.9375 h -0.0312 q -0.26563,0.54688 -0.84375,0.82813 -0.57813,0.26562 -1.34375,0.26562 -1.45313,0 -2.3125,-1 -0.85938,-1 -0.85938,-2.625 0,-1.59375 0.82813,-2.57812 0.84375,-1 2.3125,-1 0.67187,0 1.28125,0.28125 0.60937,0.26562 0.9375,0.79687 h 0.0312 v -3.54687 z m -5.34375,6.125 q 0,1.10937 0.57813,1.82812 0.57812,0.71875 1.5625,0.71875 1,0 1.54687,-0.71875 0.5625,-0.71875 0.5625,-1.875 0,-1.17187 -0.57812,-1.89062 -0.5625,-0.71875 -1.60938,-0.71875 -0.98437,0 -1.53125,0.71875 -0.53125,0.70312 -0.53125,1.9375 z m 13.55667,-6.0625 q 1.3125,0 2.14063,0.75 0.82812,0.73437 0.82812,1.96875 0,0.98437 -0.54687,1.78125 -0.54688,0.78125 -2.32813,1.79687 -1.07812,0.625 -1.53125,1.125 -0.45312,0.48438 -0.54687,1.03125 h 4.84375 v 1 h -6.17188 q 0.10938,-1.17187 0.60938,-2.0625 0.51562,-0.89062 1.92187,-1.71875 1.64063,-1.01562 2.07813,-1.57812 0.45312,-0.57813 0.45312,-1.375 0,-0.75 -0.51562,-1.23438 -0.51563,-0.48437 -1.29688,-0.48437 -0.85937,0 -1.35937,0.64062 -0.48438,0.64063 -0.48438,1.60938 v 0.0937 h -1.14062 v -0.23438 q 0,-1.40625 0.82812,-2.25 0.84375,-0.85937 2.21875,-0.85937 z m 6.3656,7.96875 v 1.42187 q 0,0.73438 -0.35937,1.26563 -0.35938,0.53125 -1.09375,0.75 v -0.65625 q 0.34375,-0.125 0.54687,-0.45313 0.21875,-0.32812 0.21875,-0.76562 v -0.0781 h -0.78125 v -1.48437 z m 8.4841,-5.5625 q 0.71875,0 1.25,0.3125 0.53125,0.3125 0.8125,0.82812 h 0.0156 v -0.98437 h 1.0625 v 6.375 q 0,1.625 -0.78125,2.46875 -0.78125,0.84375 -2.40625,0.84375 -1.1875,0 -2,-0.53125 -0.8125,-0.51563 -0.85938,-1.48438 h 1.125 q 0.0312,0.51563 0.5625,0.8125 0.54688,0.29688 1.21875,0.29688 1.01563,0 1.54688,-0.67188 0.53125,-0.65625 0.53125,-1.95312 v -0.4375 h -0.0312 q -0.26563,0.57812 -0.84375,0.92187 -0.57813,0.32813 -1.3125,0.32813 -1.39063,0 -2.23438,-0.95313 -0.82812,-0.96875 -0.82812,-2.53125 0,-1.57812 0.82812,-2.60937 0.84375,-1.03125 2.34375,-1.03125 z m -1.98437,3.5 q 0,1.23437 0.51562,1.9375 0.51563,0.6875 1.4375,0.6875 0.9375,0 1.48438,-0.71875 0.5625,-0.73438 0.5625,-1.9375 0,-1.10938 -0.51563,-1.78125 -0.51562,-0.6875 -1.45312,-0.6875 -0.95313,0 -1.5,0.6875 -0.53125,0.67187 -0.53125,1.8125 z m 9.70013,-3.5 q 1.48438,0 2.29688,1.07812 0.82812,1.0625 0.82812,2.73438 v 0.125 h -5.17187 v 0.0937 q 0,0.98437 0.57812,1.57812 0.57813,0.59375 1.57813,0.59375 0.75,0 1.1875,-0.34375 0.45312,-0.35937 0.59375,-1 h 1.125 q -0.23438,1.14063 -1.01563,1.75 -0.76562,0.59375 -1.9375,0.59375 -1.07812,0 -1.82812,-0.48437 -0.75,-0.48438 -1.10938,-1.35938 -0.35937,-0.89062 -0.35937,-1.79687 0,-1.53125 0.90625,-2.54688 0.92187,-1.01562 2.32812,-1.01562 z m -2.04687,2.9375 h 3.96875 q -0.0625,-0.84375 -0.625,-1.39063 -0.54688,-0.54687 -1.375,-0.54687 -0.78125,0 -1.34375,0.53125 -0.54688,0.51562 -0.625,1.40625 z m 9.67428,-2.9375 q 1.25,0 1.8125,0.64062 0.5625,0.64063 0.5625,1.8125 v 4.59375 h -1.14062 v -4.70312 q 0,-0.59375 -0.375,-0.96875 -0.375,-0.375 -1.03125,-0.375 -0.95313,0 -1.5,0.59375 -0.53125,0.57812 -0.53125,1.51562 v 3.9375 h -1.125 v -6.89062 h 1.0625 v 1.09375 h 0.0312 q 0.375,-0.64063 0.92187,-0.9375 0.54688,-0.3125 1.3125,-0.3125 z m 11.67798,-2.40625 v 9.45312 h -1.14062 v -6.76562 h -2.45313 v -0.90625 h 0.0469 q 1.1875,0 1.84375,-0.42188 0.65625,-0.4375 0.82812,-1.35937 z m 3.39685,-0.29688 q 1.0625,1.64063 1.57813,3.14063 0.51562,1.5 0.51562,3.10937 0,1.60938 -0.54687,3.20313 -0.53125,1.57812 -1.54688,2.9375 h -0.85937 q 0.89062,-1.40625 1.3125,-2.89063 0.4375,-1.5 0.4375,-3.25 0,-1.78125 -0.4375,-3.28125 -0.42188,-1.51562 -1.3125,-2.96875 z"
       fill-rule="nonzero"
       id="path35" />
    <path
       fill="#eeeeee"
       d="m 256.0079,200.1235 v 0 c 0,-4.34009 3.51831,-7.8584 7.8584,-7.8584 h 118.01544 c 2.08423,0 4.08301,0.82791 5.55676,2.30167 1.47376,1.47372 2.3017,3.47256 2.3017,5.55673 v 31.43277 c 0,4.34009 -3.51837,7.85843 -7.85846,7.85843 H 263.8663 c -4.34009,0 -7.8584,-3.51834 -7.8584,-7.85843 z"
       fill-rule="evenodd"
       id="path36" />
    <path
       stroke="#595959"
       stroke-width="1"
       stroke-linejoin="round"
       stroke-linecap="butt"
       d="m 256.0079,200.1235 v 0 c 0,-4.34009 3.51831,-7.8584 7.8584,-7.8584 h 118.01544 c 2.08423,0 4.08301,0.82791 5.55676,2.30167 1.47376,1.47372 2.3017,3.47256 2.3017,5.55673 v 31.43277 c 0,4.34009 -3.51837,7.85843 -7.85846,7.85843 H 263.8663 c -4.34009,0 -7.8584,-3.51834 -7.8584,-7.85843 z"
       fill-rule="evenodd"
       id="path37" />
    <path
       fill="#595959"
       d="m 304.69824,202.278 1.8125,7.76563 h 0.0312 l 1.98438,-7.76563 h 2.34375 l 1.95312,7.85938 h 0.0312 l 1.875,-7.85938 h 2.46875 l -3.07812,11.42188 h -2.5 l -1.92188,-7.78125 h -0.0312 l -1.90625,7.78125 h -2.54687 l -3.0312,-11.42188 z m 18.77344,-0.28125 q 1.9375,0 3.3125,1.10938 1.375,1.09375 1.60937,3 h -2.4375 q -0.15625,-0.89063 -0.89062,-1.4375 -0.71875,-0.5625 -1.60938,-0.5625 -1.46875,0 -2.28125,1.07812 -0.8125,1.07813 -0.8125,2.84375 0,1.70313 0.79688,2.76563 0.8125,1.0625 2.3125,1.0625 1.07812,0 1.75,-0.67188 0.67187,-0.67187 0.82812,-1.89062 h 2.4375 q -0.21875,2.1875 -1.57812,3.4375 -1.35938,1.25 -3.4375,1.25 -1.65625,0 -2.9375,-0.75 -1.28125,-0.76563 -1.98438,-2.14063 -0.70312,-1.375 -0.70312,-3.0625 0,-2.625 1.53125,-4.32812 1.54687,-1.70313 4.09375,-1.70313 z m 10.26562,0.28125 2.67188,7.84375 h 0.0312 l 2.53125,-7.8125 0.0156,-0.0312 h 3.51563 v 11.42188 h -2.34375 v -8.09375 h -0.0312 l -2.79688,8.09375 h -1.9375 l -2.8125,-8.01563 h -0.0312 v 8.01563 h -2.34375 V 202.278 Z"
       fill-rule="nonzero"
       id="path38" />
    <path
       fill="#595959"
       d="m 282.63135,220.3899 q -0.89063,1.40625 -1.32813,2.90625 -0.42187,1.48437 -0.42187,3.25 0,1.78125 0.42187,3.28125 0.4375,1.5 1.32813,2.95312 h -0.85938 q -1.14062,-1.78125 -1.625,-3.25 -0.46875,-1.48437 -0.46875,-2.98437 0,-1.5625 0.53125,-3.17188 0.53125,-1.60937 1.5625,-2.98437 z m 3.01166,2.70312 q 1.39062,0 2.0625,0.54688 0.6875,0.53125 0.75,1.60937 h -1.125 v -0.0156 q -0.0469,-0.54688 -0.48438,-0.84375 -0.4375,-0.29688 -1.10937,-0.29688 -0.6875,0 -1.09375,0.23438 -0.39063,0.21875 -0.39063,0.64062 0,0.375 0.34375,0.625 0.35938,0.23438 1.0625,0.375 l 1.0625,0.25 q 1,0.21875 1.51563,0.6875 0.53125,0.45313 0.53125,1.21875 0,1.01563 -0.79688,1.59375 -0.78125,0.57813 -2.14062,0.57813 -1.3125,0 -2.09375,-0.57813 -0.76563,-0.59375 -0.82813,-1.75 h 1.14063 q 0.0156,0.64063 0.5,0.98438 0.5,0.34375 1.34375,0.34375 0.82812,0 1.25,-0.25 0.42187,-0.26563 0.42187,-0.78125 0,-0.45313 -0.42187,-0.71875 -0.42188,-0.28125 -1.71875,-0.53125 -1.29688,-0.26563 -1.82813,-0.71875 -0.53125,-0.46875 -0.53125,-1.25 0,-0.90625 0.73438,-1.42188 0.73437,-0.53125 1.84375,-0.53125 z m 7.24219,0 q 1.48437,0 2.29687,1.07813 0.82813,1.0625 0.82813,2.73437 v 0.125 h -5.17188 v 0.0937 q 0,0.98438 0.57813,1.57813 0.57812,0.59375 1.57812,0.59375 0.75,0 1.1875,-0.34375 0.45313,-0.35938 0.59375,-1 h 1.125 q -0.23437,1.14062 -1.01562,1.75 -0.76563,0.59375 -1.9375,0.59375 -1.07813,0 -1.82813,-0.48438 -0.75,-0.48437 -1.10937,-1.35937 -0.35938,-0.89063 -0.35938,-1.79688 0,-1.53125 0.90625,-2.54687 0.92188,-1.01563 2.32813,-1.01563 z m -2.04688,2.9375 h 3.96875 q -0.0625,-0.84375 -0.625,-1.39062 -0.54687,-0.54688 -1.375,-0.54688 -0.78125,0 -1.34375,0.53125 -0.54687,0.51563 -0.625,1.40625 z m 9.20557,-2.9375 q 1.48437,0 2.29687,1.07813 0.82813,1.0625 0.82813,2.73437 v 0.125 h -5.17188 v 0.0937 q 0,0.98438 0.57813,1.57813 0.57812,0.59375 1.57812,0.59375 0.75,0 1.1875,-0.34375 0.45313,-0.35938 0.59375,-1 h 1.125 q -0.23437,1.14062 -1.01562,1.75 -0.76563,0.59375 -1.9375,0.59375 -1.07813,0 -1.82813,-0.48438 -0.75,-0.48437 -1.10937,-1.35937 -0.35938,-0.89063 -0.35938,-1.79688 0,-1.53125 0.90625,-2.54687 0.92188,-1.01563 2.32813,-1.01563 z m -2.04688,2.9375 h 3.96875 q -0.0625,-0.84375 -0.625,-1.39062 -0.54687,-0.54688 -1.375,-0.54688 -0.78125,0 -1.34375,0.53125 -0.54687,0.51563 -0.625,1.40625 z m 12.50238,-5.40625 v 9.51563 h -1.14062 v -0.9375 h -0.0312 q -0.26563,0.54687 -0.84375,0.82812 -0.57813,0.26563 -1.34375,0.26563 -1.45313,0 -2.3125,-1 -0.85938,-1 -0.85938,-2.625 0,-1.59375 0.82813,-2.57813 0.84375,-1 2.3125,-1 0.67187,0 1.28125,0.28125 0.60937,0.26563 0.9375,0.79688 h 0.0312 v -3.54688 z m -5.34375,6.125 q 0,1.10938 0.57813,1.82813 0.57812,0.71875 1.5625,0.71875 1,0 1.54687,-0.71875 0.5625,-0.71875 0.5625,-1.875 0,-1.17188 -0.57812,-1.89063 -0.5625,-0.71875 -1.60938,-0.71875 -0.98437,0 -1.53125,0.71875 -0.53125,0.70313 -0.53125,1.9375 z m 14.6817,-6.0625 v 9.45313 h -1.14062 v -6.76563 h -2.45313 v -0.90625 h 0.0469 q 1.1875,0 1.84375,-0.42187 0.65625,-0.4375 0.82812,-1.35938 z m 5.2406,7.96875 v 1.42188 q 0,0.73437 -0.35937,1.26562 -0.35938,0.53125 -1.09375,0.75 v -0.65625 q 0.34375,-0.125 0.54687,-0.45312 0.21875,-0.32813 0.21875,-0.76563 v -0.0781 h -0.78125 v -1.48438 z m 8.48407,-5.5625 q 0.71875,0 1.25,0.3125 0.53125,0.3125 0.8125,0.82813 h 0.0156 v -0.98438 h 1.0625 v 6.375 q 0,1.625 -0.78125,2.46875 -0.78125,0.84375 -2.40625,0.84375 -1.1875,0 -2,-0.53125 -0.8125,-0.51562 -0.85938,-1.48437 h 1.125 q 0.0312,0.51562 0.5625,0.8125 0.54688,0.29687 1.21875,0.29687 1.01563,0 1.54688,-0.67187 0.53125,-0.65625 0.53125,-1.95313 v -0.4375 h -0.0312 q -0.26563,0.57813 -0.84375,0.92188 -0.57813,0.32812 -1.3125,0.32812 -1.39063,0 -2.23438,-0.95312 -0.82812,-0.96875 -0.82812,-2.53125 0,-1.57813 0.82812,-2.60938 0.84375,-1.03125 2.34375,-1.03125 z m -1.98437,3.5 q 0,1.23438 0.51562,1.9375 0.51563,0.6875 1.4375,0.6875 0.9375,0 1.48438,-0.71875 0.5625,-0.73437 0.5625,-1.9375 0,-1.10937 -0.51563,-1.78125 -0.51562,-0.6875 -1.45312,-0.6875 -0.95313,0 -1.5,0.6875 -0.53125,0.67188 -0.53125,1.8125 z m 9.70013,-3.5 q 1.48438,0 2.29688,1.07813 0.82812,1.0625 0.82812,2.73437 v 0.125 h -5.17187 v 0.0937 q 0,0.98438 0.57812,1.57813 0.57813,0.59375 1.57813,0.59375 0.75,0 1.1875,-0.34375 0.45312,-0.35938 0.59375,-1 h 1.125 q -0.23438,1.14062 -1.01563,1.75 -0.76562,0.59375 -1.9375,0.59375 -1.07812,0 -1.82812,-0.48438 -0.75,-0.48437 -1.10938,-1.35937 -0.35937,-0.89063 -0.35937,-1.79688 0,-1.53125 0.90625,-2.54687 0.92187,-1.01563 2.32812,-1.01563 z m -2.04687,2.9375 h 3.96875 q -0.0625,-0.84375 -0.625,-1.39062 -0.54688,-0.54688 -1.375,-0.54688 -0.78125,0 -1.34375,0.53125 -0.54688,0.51563 -0.625,1.40625 z m 9.67431,-2.9375 q 1.25,0 1.8125,0.64063 0.5625,0.64062 0.5625,1.8125 v 4.59375 h -1.14062 v -4.70313 q 0,-0.59375 -0.375,-0.96875 -0.375,-0.375 -1.03125,-0.375 -0.95313,0 -1.5,0.59375 -0.53125,0.57813 -0.53125,1.51563 v 3.9375 h -1.125 v -6.89063 h 1.0625 v 1.09375 h 0.0312 q 0.375,-0.64062 0.92187,-0.9375 0.54688,-0.3125 1.3125,-0.3125 z m 10.55298,-2.40625 q 1.3125,0 2.14063,0.75 0.82812,0.73438 0.82812,1.96875 0,0.98438 -0.54687,1.78125 -0.54688,0.78125 -2.32813,1.79688 -1.07812,0.625 -1.53125,1.125 -0.45312,0.48437 -0.54687,1.03125 h 4.84375 v 1 h -6.17188 q 0.10938,-1.17188 0.60938,-2.0625 0.51562,-0.89063 1.92187,-1.71875 1.64063,-1.01563 2.07813,-1.57813 0.45312,-0.57812 0.45312,-1.375 0,-0.75 -0.51562,-1.23437 -0.51563,-0.48438 -1.29688,-0.48438 -0.85937,0 -1.35937,0.64063 -0.48438,0.64062 -0.48438,1.60937 v 0.0937 h -1.14062 v -0.23437 q 0,-1.40625 0.82812,-2.25 0.84375,-0.85938 2.21875,-0.85938 z m 4.52185,-0.29687 q 1.0625,1.64062 1.57813,3.14062 0.51562,1.5 0.51562,3.10938 0,1.60937 -0.54687,3.20312 -0.53125,1.57813 -1.54688,2.9375 h -0.85937 q 0.89062,-1.40625 1.3125,-2.89062 0.4375,-1.5 0.4375,-3.25 0,-1.78125 -0.4375,-3.28125 -0.42188,-1.51563 -1.3125,-2.96875 z"
       fill-rule="nonzero"
       id="path39" />
    <path
       fill="#eeeeee"
       d="m 256.0079,265.7587 v 0 c 0,-4.34009 3.51831,-7.85843 7.8584,-7.85843 h 118.01544 c 2.08423,0 4.08301,0.82794 5.55676,2.30167 1.47376,1.47375 2.3017,3.47256 2.3017,5.55676 v 31.43274 c 0,4.34009 -3.51837,7.85843 -7.85846,7.85843 H 263.8663 c -4.34009,0 -7.8584,-3.51834 -7.8584,-7.85843 z"
       fill-rule="evenodd"
       id="path40" />
    <path
       stroke="#595959"
       stroke-width="1"
       stroke-linejoin="round"
       stroke-linecap="butt"
       d="m 256.0079,265.7587 v 0 c 0,-4.34009 3.51831,-7.85843 7.8584,-7.85843 h 118.01544 c 2.08423,0 4.08301,0.82794 5.55676,2.30167 1.47376,1.47375 2.3017,3.47256 2.3017,5.55676 v 31.43274 c 0,4.34009 -3.51837,7.85843 -7.85846,7.85843 H 263.8663 c -4.34009,0 -7.8584,-3.51834 -7.8584,-7.85843 z"
       fill-rule="evenodd"
       id="path41" />
    <path
       fill="#595959"
       d="m 304.69824,267.91318 1.8125,7.76562 h 0.0312 l 1.98438,-7.76562 h 2.34375 l 1.95312,7.85937 h 0.0312 l 1.875,-7.85937 h 2.46875 l -3.07812,11.42187 h -2.5 l -1.92188,-7.78125 h -0.0312 l -1.90625,7.78125 h -2.54687 l -3.03125,-11.42187 z m 18.77344,-0.28125 q 1.9375,0 3.3125,1.10937 1.375,1.09375 1.60937,3 h -2.4375 q -0.15625,-0.89062 -0.89062,-1.4375 -0.71875,-0.5625 -1.60938,-0.5625 -1.46875,0 -2.28125,1.07813 -0.8125,1.07812 -0.8125,2.84375 0,1.70312 0.79688,2.76562 0.8125,1.0625 2.3125,1.0625 1.07812,0 1.75,-0.67187 0.67187,-0.67188 0.82812,-1.89063 h 2.4375 q -0.21875,2.1875 -1.57812,3.4375 -1.35938,1.25 -3.4375,1.25 -1.65625,0 -2.9375,-0.75 -1.28125,-0.76562 -1.98438,-2.14062 -0.70312,-1.375 -0.70312,-3.0625 0,-2.625 1.53125,-4.32813 1.54687,-1.70312 4.09375,-1.70312 z m 10.26562,0.28125 2.67188,7.84375 h 0.0312 l 2.53125,-7.8125 0.0156,-0.0312 h 3.51563 v 11.42187 h -2.34375 v -8.09375 h -0.0312 l -2.79688,8.09375 h -1.9375 l -2.8125,-8.01562 h -0.0312 v 8.01562 h -2.34375 v -11.42187 z"
       fill-rule="nonzero"
       id="path42" />
    <path
       fill="#595959"
       d="m 282.63135,286.02505 q -0.89063,1.40625 -1.32813,2.90625 -0.42187,1.48438 -0.42187,3.25 0,1.78125 0.42187,3.28125 0.4375,1.5 1.32813,2.95313 h -0.85938 q -1.14062,-1.78125 -1.625,-3.25 -0.46875,-1.48438 -0.46875,-2.98438 0,-1.5625 0.53125,-3.17187 0.53125,-1.60938 1.5625,-2.98438 z m 3.01166,2.70313 q 1.39062,0 2.0625,0.54687 0.6875,0.53125 0.75,1.60938 h -1.125 v -0.0156 q -0.0469,-0.54687 -0.48438,-0.84375 -0.4375,-0.29687 -1.10937,-0.29687 -0.6875,0 -1.09375,0.23437 -0.39063,0.21875 -0.39063,0.64063 0,0.375 0.34375,0.625 0.35938,0.23437 1.0625,0.375 l 1.0625,0.25 q 1,0.21875 1.51563,0.6875 0.53125,0.45312 0.53125,1.21875 0,1.01562 -0.79688,1.59375 -0.78125,0.57812 -2.14062,0.57812 -1.3125,0 -2.09375,-0.57812 -0.76563,-0.59375 -0.82813,-1.75 h 1.14063 q 0.0156,0.64062 0.5,0.98437 0.5,0.34375 1.34375,0.34375 0.82812,0 1.25,-0.25 0.42187,-0.26562 0.42187,-0.78125 0,-0.45312 -0.42187,-0.71875 -0.42188,-0.28125 -1.71875,-0.53125 -1.29688,-0.26562 -1.82813,-0.71875 -0.53125,-0.46875 -0.53125,-1.25 0,-0.90625 0.73438,-1.42187 0.73437,-0.53125 1.84375,-0.53125 z m 7.24219,0 q 1.48437,0 2.29687,1.07812 0.82813,1.0625 0.82813,2.73438 v 0.125 h -5.17188 v 0.0937 q 0,0.98437 0.57813,1.57812 0.57812,0.59375 1.57812,0.59375 0.75,0 1.1875,-0.34375 0.45313,-0.35937 0.59375,-1 h 1.125 q -0.23437,1.14063 -1.01562,1.75 -0.76563,0.59375 -1.9375,0.59375 -1.07813,0 -1.82813,-0.48437 -0.75,-0.48438 -1.10937,-1.35938 -0.35938,-0.89062 -0.35938,-1.79687 0,-1.53125 0.90625,-2.54688 0.92188,-1.01562 2.32813,-1.01562 z m -2.04688,2.9375 h 3.96875 q -0.0625,-0.84375 -0.625,-1.39063 -0.54687,-0.54687 -1.375,-0.54687 -0.78125,0 -1.34375,0.53125 -0.54687,0.51562 -0.625,1.40625 z m 9.20557,-2.9375 q 1.48437,0 2.29687,1.07812 0.82813,1.0625 0.82813,2.73438 v 0.125 h -5.17188 v 0.0937 q 0,0.98437 0.57813,1.57812 0.57812,0.59375 1.57812,0.59375 0.75,0 1.1875,-0.34375 0.45313,-0.35937 0.59375,-1 h 1.125 q -0.23437,1.14063 -1.01562,1.75 -0.76563,0.59375 -1.9375,0.59375 -1.07813,0 -1.82813,-0.48437 -0.75,-0.48438 -1.10937,-1.35938 -0.35938,-0.89062 -0.35938,-1.79687 0,-1.53125 0.90625,-2.54688 0.92188,-1.01562 2.32813,-1.01562 z m -2.04688,2.9375 h 3.96875 q -0.0625,-0.84375 -0.625,-1.39063 -0.54687,-0.54687 -1.375,-0.54687 -0.78125,0 -1.34375,0.53125 -0.54687,0.51562 -0.625,1.40625 z m 12.50238,-5.40625 v 9.51562 h -1.14062 v -0.9375 h -0.0312 q -0.26563,0.54688 -0.84375,0.82813 -0.57813,0.26562 -1.34375,0.26562 -1.45313,0 -2.3125,-1 -0.85938,-1 -0.85938,-2.625 0,-1.59375 0.82813,-2.57812 0.84375,-1 2.3125,-1 0.67187,0 1.28125,0.28125 0.60937,0.26562 0.9375,0.79687 h 0.0312 v -3.54687 z m -5.34375,6.125 q 0,1.10937 0.57813,1.82812 0.57812,0.71875 1.5625,0.71875 1,0 1.54687,-0.71875 0.5625,-0.71875 0.5625,-1.875 0,-1.17187 -0.57812,-1.89062 -0.5625,-0.71875 -1.60938,-0.71875 -0.98437,0 -1.53125,0.71875 -0.53125,0.70312 -0.53125,1.9375 z m 13.5567,-6.0625 q 1.3125,0 2.14063,0.75 0.82812,0.73437 0.82812,1.96875 0,0.98437 -0.54687,1.78125 -0.54688,0.78125 -2.32813,1.79687 -1.07812,0.625 -1.53125,1.125 -0.45312,0.48438 -0.54687,1.03125 h 4.84375 v 1 h -6.17188 q 0.10938,-1.17187 0.60938,-2.0625 0.51562,-0.89062 1.92187,-1.71875 1.64063,-1.01562 2.07813,-1.57812 0.45312,-0.57813 0.45312,-1.375 0,-0.75 -0.51562,-1.23438 -0.51563,-0.48437 -1.29688,-0.48437 -0.85937,0 -1.35937,0.64062 -0.48438,0.64063 -0.48438,1.60938 v 0.0937 h -1.14062 v -0.23438 q 0,-1.40625 0.82812,-2.25 0.84375,-0.85937 2.21875,-0.85937 z m 6.3656,7.96875 v 1.42187 q 0,0.73438 -0.35937,1.26563 -0.35938,0.53125 -1.09375,0.75 v -0.65625 q 0.34375,-0.125 0.54687,-0.45313 0.21875,-0.32812 0.21875,-0.76562 v -0.0781 h -0.78125 v -1.48437 z m 8.48407,-5.5625 q 0.71875,0 1.25,0.3125 0.53125,0.3125 0.8125,0.82812 h 0.0156 v -0.98437 h 1.0625 v 6.375 q 0,1.625 -0.78125,2.46875 -0.78125,0.84375 -2.40625,0.84375 -1.1875,0 -2,-0.53125 -0.8125,-0.51563 -0.85938,-1.48438 h 1.125 q 0.0312,0.51563 0.5625,0.8125 0.54688,0.29688 1.21875,0.29688 1.01563,0 1.54688,-0.67188 0.53125,-0.65625 0.53125,-1.95312 v -0.4375 h -0.0312 q -0.26563,0.57812 -0.84375,0.92187 -0.57813,0.32813 -1.3125,0.32813 -1.39063,0 -2.23438,-0.95313 -0.82812,-0.96875 -0.82812,-2.53125 0,-1.57812 0.82812,-2.60937 0.84375,-1.03125 2.34375,-1.03125 z m -1.98437,3.5 q 0,1.23437 0.51562,1.9375 0.51563,0.6875 1.4375,0.6875 0.9375,0 1.48438,-0.71875 0.5625,-0.73438 0.5625,-1.9375 0,-1.10938 -0.51563,-1.78125 -0.51562,-0.6875 -1.45312,-0.6875 -0.95313,0 -1.5,0.6875 -0.53125,0.67187 -0.53125,1.8125 z m 9.70013,-3.5 q 1.48438,0 2.29688,1.07812 0.82812,1.0625 0.82812,2.73438 v 0.125 h -5.17187 v 0.0937 q 0,0.98437 0.57812,1.57812 0.57813,0.59375 1.57813,0.59375 0.75,0 1.1875,-0.34375 0.45312,-0.35937 0.59375,-1 h 1.125 q -0.23438,1.14063 -1.01563,1.75 -0.76562,0.59375 -1.9375,0.59375 -1.07812,0 -1.82812,-0.48437 -0.75,-0.48438 -1.10938,-1.35938 -0.35937,-0.89062 -0.35937,-1.79687 0,-1.53125 0.90625,-2.54688 0.92187,-1.01562 2.32812,-1.01562 z m -2.04687,2.9375 h 3.96875 q -0.0625,-0.84375 -0.625,-1.39063 -0.54688,-0.54687 -1.375,-0.54687 -0.78125,0 -1.34375,0.53125 -0.54688,0.51562 -0.625,1.40625 z m 9.67431,-2.9375 q 1.25,0 1.8125,0.64062 0.5625,0.64063 0.5625,1.8125 v 4.59375 h -1.14062 v -4.70312 q 0,-0.59375 -0.375,-0.96875 -0.375,-0.375 -1.03125,-0.375 -0.95313,0 -1.5,0.59375 -0.53125,0.57812 -0.53125,1.51562 v 3.9375 h -1.125 v -6.89062 h 1.0625 v 1.09375 h 0.0312 q 0.375,-0.64063 0.92187,-0.9375 0.54688,-0.3125 1.3125,-0.3125 z m 10.55298,-2.40625 q 1.3125,0 2.14063,0.75 0.82812,0.73437 0.82812,1.96875 0,0.98437 -0.54687,1.78125 -0.54688,0.78125 -2.32813,1.79687 -1.07812,0.625 -1.53125,1.125 -0.45312,0.48438 -0.54687,1.03125 h 4.84375 v 1 h -6.17188 q 0.10938,-1.17187 0.60938,-2.0625 0.51562,-0.89062 1.92187,-1.71875 1.64063,-1.01562 2.07813,-1.57812 0.45312,-0.57813 0.45312,-1.375 0,-0.75 -0.51562,-1.23438 -0.51563,-0.48437 -1.29688,-0.48437 -0.85937,0 -1.35937,0.64062 -0.48438,0.64063 -0.48438,1.60938 v 0.0937 h -1.14062 v -0.23438 q 0,-1.40625 0.82812,-2.25 0.84375,-0.85937 2.21875,-0.85937 z m 4.52185,-0.29688 q 1.0625,1.64063 1.57813,3.14063 0.51562,1.5 0.51562,3.10937 0,1.60938 -0.54687,3.20313 -0.53125,1.57812 -1.54688,2.9375 h -0.85937 q 0.89062,-1.40625 1.3125,-2.89063 0.4375,-1.5 0.4375,-3.25 0,-1.78125 -0.4375,-3.28125 -0.42188,-1.51562 -1.3125,-2.96875 z"
       fill-rule="nonzero"
       id="path43" />
    <path
       fill="#000000"
       fill-opacity="0"
       d="m 85.8084,119.87665 17.95276,-35.3071"
       fill-rule="evenodd"
       id="path44" />
    <path
       stroke="#ffffff"
       stroke-width="1"
       stroke-linejoin="round"
       stroke-linecap="butt"
       d="M 85.8084,119.87665 101.04165,89.91786"
       fill-rule="evenodd"
       id="path45" />
    <path
       fill="#ffffff"
       stroke="#ffffff"
       stroke-width="1"
       stroke-linecap="butt"
       d="m 102.514,90.6665 0.58453,-4.79384 -3.5292,3.29656 z"
       fill-rule="evenodd"
       id="path46" />
    <path
       fill="#000000"
       fill-opacity="0"
       d="m 85.8084,119.87665 17.95276,30.3307"
       fill-rule="evenodd"
       id="path47" />
    <path
       stroke="#ffffff"
       stroke-width="1"
       stroke-linejoin="round"
       stroke-linecap="butt"
       d="m 85.8084,119.87665 14.89654,25.16737"
       fill-rule="evenodd"
       id="path48" />
    <path
       fill="#ffffff"
       stroke="#ffffff"
       stroke-width="1"
       stroke-linecap="butt"
       d="m 99.28357,145.88536 3.73294,3.06395 -0.89011,-4.74661 z"
       fill-rule="evenodd"
       id="path49" />
    <path
       fill="#000000"
       fill-opacity="0"
       d="m 237.4882,84.56955 h 18.51968"
       fill-rule="evenodd"
       id="path50" />
    <path
       stroke="#ffffff"
       stroke-width="1"
       stroke-linejoin="round"
       stroke-linecap="butt"
       d="m 237.4882,84.56955 h 12.51968"
       fill-rule="evenodd"
       id="path51" />
    <path
       fill="#ffffff"
       stroke="#ffffff"
       stroke-width="1"
       stroke-linecap="butt"
       d="m 250.0079,86.22128 4.53809,-1.65173 -4.53809,-1.65174 z"
       fill-rule="evenodd"
       id="path52" />
    <path
       fill="#000000"
       fill-opacity="0"
       d="m 237.4882,150.20473 h 18.51968"
       fill-rule="evenodd"
       id="path53" />
    <path
       stroke="#ffffff"
       stroke-width="1"
       stroke-linejoin="round"
       stroke-linecap="butt"
       d="m 237.4882,150.20473 h 12.51968"
       fill-rule="evenodd"
       id="path54" />
    <path
       fill="#ffffff"
       stroke="#ffffff"
       stroke-width="1"
       stroke-linecap="butt"
       d="m 250.0079,151.85646 4.53809,-1.65173 -4.53809,-1.65174 z"
       fill-rule="evenodd"
       id="path55" />
    <path
       fill="#000000"
       fill-opacity="0"
       d="M 88.7021,248.81628 103.75724,215.8399"
       fill-rule="evenodd"
       id="path56" />
    <path
       stroke="#ffffff"
       stroke-width="1"
       stroke-linejoin="round"
       stroke-linecap="butt"
       d="m 88.7021,248.81628 12.56329,-27.51831"
       fill-rule="evenodd"
       id="path57" />
    <path
       fill="#ffffff"
       stroke="#ffffff"
       stroke-width="1"
       stroke-linecap="butt"
       d="m 102.7679,221.98395 0.38217,-4.81418 -3.38727,3.44223 z"
       fill-rule="evenodd"
       id="path58" />
    <path
       fill="#000000"
       fill-opacity="0"
       d="m 88.7021,248.81628 15.05514,32.66141"
       fill-rule="evenodd"
       id="path59" />
    <path
       stroke="#ffffff"
       stroke-width="1"
       stroke-linejoin="round"
       stroke-linecap="butt"
       d="m 88.7021,248.81628 12.54346,27.21243"
       fill-rule="evenodd"
       id="path60" />
    <path
       fill="#ffffff"
       stroke="#ffffff"
       stroke-width="1"
       stroke-linecap="butt"
       d="m 99.74548,276.72015 3.39975,3.4299 -0.39966,-4.81277 z"
       fill-rule="evenodd"
       id="path61" />
    <path
       fill="#000000"
       fill-opacity="0"
       d="m 237.48557,215.8399 h 18.51968"
       fill-rule="evenodd"
       id="path62" />
    <path
       stroke="#ffffff"
       stroke-width="1"
       stroke-linejoin="round"
       stroke-linecap="butt"
       d="m 237.48557,215.8399 h 12.51968"
       fill-rule="evenodd"
       id="path63" />
    <path
       fill="#ffffff"
       stroke="#ffffff"
       stroke-width="1"
       stroke-linecap="butt"
       d="m 250.00525,217.49164 4.53809,-1.65173 -4.53809,-1.65174 z"
       fill-rule="evenodd"
       id="path64" />
    <path
       fill="#000000"
       fill-opacity="0"
       d="m 237.48557,281.47507 h 18.51968"
       fill-rule="evenodd"
       id="path65" />
    <path
       stroke="#ffffff"
       stroke-width="1"
       stroke-linejoin="round"
       stroke-linecap="butt"
       d="m 237.48557,281.47507 h 12.51968"
       fill-rule="evenodd"
       id="path66" />
    <path
       fill="#ffffff"
       stroke="#ffffff"
       stroke-width="1"
       stroke-linecap="butt"
       d="m 250.00525,283.1268 4.53809,-1.65173 -4.53809,-1.65174 z"
       fill-rule="evenodd"
       id="path67" />
    <path
       fill="#000000"
       fill-opacity="0"
       d="m 393.7769,254.958 h 46.51965 v 30.51968 H 393.7769 Z"
       fill-rule="evenodd"
       id="path68" />
    <path
       fill="#ffffff"
       d="m 405.5738,286.99802 v -2.40625 h 2.40625 v 2.40625 z m 8.01562,0 v -2.40625 h 2.39063 v 2.40625 z m 7.98438,0 v -2.40625 h 2.42187 v 2.40625 z"
       fill-rule="nonzero"
       id="path69" />
    <path
       fill="#000000"
       fill-opacity="0"
       d="m 392.2152,192.2651 h 46.51971 v 30.51968 H 392.2152 Z"
       fill-rule="evenodd"
       id="path70" />
    <path
       fill="#ffffff"
       d="m 404.0121,224.30508 v -2.40625 h 2.40625 v 2.40625 z m 8.01563,0 v -2.40625 h 2.39062 v 2.40625 z m 7.98437,0 v -2.40625 h 2.42188 v 2.40625 z"
       fill-rule="nonzero"
       id="path71" />
    <path
       fill="#000000"
       fill-opacity="0"
       d="m 5.49344,95.7664 h 80.31497 v 48.22047 H 5.49344 Z"
       fill-rule="evenodd"
       id="path72" />
    <path
       fill="#ffffff"
       d="m 21.47903,108.70453 2.54688,8.03125 h 0.0312 l 2.57812,-8.03125 h 2.59375 l -3.79687,11.42187 h -2.82813 l -3.71875,-11.42187 z m 11.64063,2.92187 q 1.82812,0 2.71875,0.60938 0.90625,0.59375 0.90625,1.6875 v 4.4375 q 0,0.5 0.0625,1 0.0625,0.5 0.21875,0.76562 h -2.29688 q -0.0625,-0.1875 -0.10937,-0.39062 -0.0469,-0.20313 -0.0625,-0.40625 -0.46875,0.5 -1.1875,0.76562 -0.70313,0.26563 -1.59375,0.26563 -1.28125,0 -2.04688,-0.64063 -0.76562,-0.65625 -0.76562,-1.85937 0,-1.15625 0.71875,-1.76563 0.71875,-0.60937 2.625,-0.82812 1.3125,-0.125 1.73437,-0.3125 0.42188,-0.20313 0.42188,-0.70313 0,-0.54687 -0.32813,-0.82812 -0.3125,-0.28125 -1.125,-0.28125 -0.70312,0 -1.07812,0.3125 -0.375,0.29687 -0.4375,0.9375 h -2.28125 q 0.0937,-1.35938 1.125,-2.0625 1.03125,-0.70313 2.78125,-0.70313 z m -1.89063,6.14063 q 0,0.5 0.32813,0.78125 0.34375,0.28125 1.07812,0.28125 0.90625,0 1.35938,-0.46875 0.46875,-0.48438 0.46875,-1.40625 v -0.875 q -0.20313,0.15625 -0.53125,0.25 -0.32813,0.0781 -1.20313,0.20312 -0.76562,0.0937 -1.14062,0.40625 -0.35938,0.29688 -0.35938,0.82813 z m 12.09375,-6.14063 q 0.15625,0 0.28125,0.0312 0.125,0.0156 0.23438,0.0469 v 2.10937 q -0.20313,-0.0312 -0.39063,-0.0469 -0.17187,-0.0312 -0.42187,-0.0312 -1.15625,0 -1.70313,0.70312 -0.54687,0.70313 -0.54687,1.89063 v 3.79687 h -2.26563 v -8.28125 h 2.15625 v 1.54688 h 0.0312 q 0.35938,-0.8125 1.0625,-1.28125 0.71875,-0.48438 1.5625,-0.48438 z m 3.74219,-2.92187 v 1.85937 h -2.26563 v -1.85937 z m 0,3.14062 v 8.28125 h -2.26563 v -8.28125 z m 5.59375,-0.21875 q 1.82812,0 2.71875,0.60938 0.90625,0.59375 0.90625,1.6875 v 4.4375 q 0,0.5 0.0625,1 0.0625,0.5 0.21875,0.76562 h -2.29688 q -0.0625,-0.1875 -0.10937,-0.39062 -0.0469,-0.20313 -0.0625,-0.40625 -0.46875,0.5 -1.1875,0.76562 -0.70313,0.26563 -1.59375,0.26563 -1.28125,0 -2.04688,-0.64063 -0.76562,-0.65625 -0.76562,-1.85937 0,-1.15625 0.71875,-1.76563 0.71875,-0.60937 2.625,-0.82812 1.3125,-0.125 1.73437,-0.3125 0.42188,-0.20313 0.42188,-0.70313 0,-0.54687 -0.32813,-0.82812 -0.3125,-0.28125 -1.125,-0.28125 -0.70312,0 -1.07812,0.3125 -0.375,0.29687 -0.4375,0.9375 h -2.28125 q 0.0937,-1.35938 1.125,-2.0625 1.03125,-0.70313 2.78125,-0.70313 z m -1.89063,6.14063 q 0,0.5 0.32813,0.78125 0.34375,0.28125 1.07812,0.28125 0.90625,0 1.35938,-0.46875 0.46875,-0.48438 0.46875,-1.40625 v -0.875 q -0.20313,0.15625 -0.53125,0.25 -0.32813,0.0781 -1.20313,0.20312 -0.76562,0.0937 -1.14062,0.40625 -0.35938,0.29688 -0.35938,0.82813 z m 12.01563,-6.14063 q 1.59375,0 2.29687,0.8125 0.71875,0.79688 0.71875,2.51563 v 5.17187 h -2.26562 v -4.75 q 0,-0.96875 -0.34375,-1.45312 -0.32813,-0.5 -1.10938,-0.5 -0.95312,0 -1.35937,0.5625 -0.40625,0.5625 -0.40625,1.71875 v 4.42187 h -2.26563 v -8.28125 h 2.15625 v 1.15625 h 0.0469 q 0.40625,-0.65625 1.0625,-1.01562 0.67187,-0.35938 1.46875,-0.35938 z m 7.625,-2.25 v 2.46875 h 1.65625 v 1.53125 h -1.65625 v 4.14063 q 0,0.51562 0.1875,0.71875 0.1875,0.1875 0.76562,0.1875 0.20313,0 0.375,-0.0156 0.1875,-0.0156 0.32813,-0.0469 v 1.78125 q -0.28125,0.0469 -0.625,0.0625 -0.34375,0.0156 -0.6875,0.0156 -1.46875,0 -2.04688,-0.5 -0.57812,-0.51562 -0.57812,-1.42187 v -4.92188 h -1.375 v -1.53125 h 1.375 v -2.46875 z"
       fill-rule="nonzero"
       id="path73" />
    <path
       fill="#ffffff"
       d="m 31.0259,127.90453 v 11.42187 h -2.17188 v -1.0625 h -0.0312 q -0.35937,0.64063 -1.01562,0.96875 -0.64063,0.32813 -1.48438,0.32813 -1.70312,0 -2.71875,-1.25 -1,-1.25 -1,-3.20313 0,-1.84375 0.98438,-3.0625 1,-1.21875 2.6875,-1.21875 0.76562,0 1.40625,0.3125 0.64062,0.3125 1.03125,0.92188 h 0.0312 v -4.15625 z m -6.15625,7.26562 q 0,1.15625 0.53125,1.92188 0.54687,0.75 1.46875,0.75 0.95312,0 1.45312,-0.70313 0.5,-0.70312 0.5,-1.96875 0,-1.21875 -0.5,-1.92187 -0.48437,-0.70313 -1.45312,-0.70313 -0.95313,0 -1.48438,0.70313 -0.51562,0.70312 -0.51562,1.92187 z m 11.66406,-4.34375 q 1.82813,0 2.71875,0.60938 0.90625,0.59375 0.90625,1.6875 v 4.4375 q 0,0.5 0.0625,1 0.0625,0.5 0.21875,0.76562 h -2.29687 q -0.0625,-0.1875 -0.10938,-0.39062 -0.0469,-0.20313 -0.0625,-0.40625 -0.46875,0.5 -1.1875,0.76562 -0.70312,0.26563 -1.59375,0.26563 -1.28125,0 -2.04687,-0.64063 -0.76563,-0.65625 -0.76563,-1.85937 0,-1.15625 0.71875,-1.76563 0.71875,-0.60937 2.625,-0.82812 1.3125,-0.125 1.73438,-0.3125 0.42187,-0.20313 0.42187,-0.70313 0,-0.54687 -0.32812,-0.82812 -0.3125,-0.28125 -1.125,-0.28125 -0.70313,0 -1.07813,0.3125 -0.375,0.29687 -0.4375,0.9375 h -2.28125 q 0.0937,-1.35938 1.125,-2.0625 1.03125,-0.70313 2.78125,-0.70313 z m -1.89062,6.14063 q 0,0.5 0.32812,0.78125 0.34375,0.28125 1.07813,0.28125 0.90625,0 1.35937,-0.46875 0.46875,-0.48438 0.46875,-1.40625 v -0.875 q -0.20312,0.15625 -0.53125,0.25 -0.32812,0.0781 -1.20312,0.20312 -0.76563,0.0937 -1.14063,0.40625 -0.35937,0.29688 -0.35937,0.82813 z m 10.15625,-8.39063 v 2.46875 h 1.65625 v 1.53125 h -1.65625 v 4.14063 q 0,0.51562 0.1875,0.71875 0.1875,0.1875 0.76562,0.1875 0.20313,0 0.375,-0.0156 0.1875,-0.0156 0.32813,-0.0469 v 1.78125 q -0.28125,0.0469 -0.625,0.0625 -0.34375,0.0156 -0.6875,0.0156 -1.46875,0 -2.04688,-0.5 -0.57812,-0.51562 -0.57812,-1.42187 v -4.92188 h -1.375 v -1.53125 h 1.375 v -2.46875 z m 6.55468,2.25 q 1.82813,0 2.71875,0.60938 0.90625,0.59375 0.90625,1.6875 v 4.4375 q 0,0.5 0.0625,1 0.0625,0.5 0.21875,0.76562 H 52.9634 q -0.0625,-0.1875 -0.10938,-0.39062 -0.0469,-0.20313 -0.0625,-0.40625 -0.46875,0.5 -1.1875,0.76562 -0.70312,0.26563 -1.59375,0.26563 -1.28125,0 -2.04687,-0.64063 -0.76563,-0.65625 -0.76563,-1.85937 0,-1.15625 0.71875,-1.76563 0.71875,-0.60937 2.625,-0.82812 1.3125,-0.125 1.73438,-0.3125 0.42187,-0.20313 0.42187,-0.70313 0,-0.54687 -0.32812,-0.82812 -0.3125,-0.28125 -1.125,-0.28125 -0.70313,0 -1.07813,0.3125 -0.375,0.29687 -0.4375,0.9375 h -2.28125 q 0.0937,-1.35938 1.125,-2.0625 1.03125,-0.70313 2.78125,-0.70313 z m -1.89062,6.14063 q 0,0.5 0.32812,0.78125 0.34375,0.28125 1.07813,0.28125 0.90625,0 1.35937,-0.46875 0.46875,-0.48438 0.46875,-1.40625 v -0.875 q -0.20312,0.15625 -0.53125,0.25 -0.32812,0.0781 -1.20312,0.20312 -0.76563,0.0937 -1.14063,0.40625 -0.35937,0.29688 -0.35937,0.82813 z m 17.13281,-8.84375 v 11.20312 h -2.28125 v -7.26562 h -2.8125 v -1.71875 h 0.15625 q 1.375,0 2.15625,-0.5625 0.79688,-0.5625 0.96875,-1.65625 z"
       fill-rule="nonzero"
       id="path74" />
    <path
       fill="#000000"
       fill-opacity="0"
       d="m 8.38715,224.70602 h 80.31494 v 48.22049 H 8.38715 Z"
       fill-rule="evenodd"
       id="path75" />
    <path
       fill="#ffffff"
       d="m 24.37274,237.64417 2.54688,8.03125 h 0.0312 l 2.57812,-8.03125 h 2.59375 l -3.79687,11.42187 h -2.82813 l -3.71875,-11.42187 z m 11.64063,2.92187 q 1.82812,0 2.71875,0.60938 0.90625,0.59375 0.90625,1.6875 v 4.4375 q 0,0.5 0.0625,1 0.0625,0.5 0.21875,0.76562 h -2.29688 q -0.0625,-0.1875 -0.10937,-0.39062 -0.0469,-0.20313 -0.0625,-0.40625 -0.46875,0.5 -1.1875,0.76562 -0.70313,0.26563 -1.59375,0.26563 -1.28125,0 -2.04688,-0.64063 -0.76562,-0.65625 -0.76562,-1.85937 0,-1.15625 0.71875,-1.76563 0.71875,-0.60937 2.625,-0.82812 1.3125,-0.125 1.73437,-0.3125 0.42188,-0.20313 0.42188,-0.70313 0,-0.54687 -0.32813,-0.82812 -0.3125,-0.28125 -1.125,-0.28125 -0.70312,0 -1.07812,0.3125 -0.375,0.29687 -0.4375,0.9375 h -2.28125 q 0.0937,-1.35938 1.125,-2.0625 1.03125,-0.70313 2.78125,-0.70313 z m -1.89063,6.14063 q 0,0.5 0.32813,0.78125 0.34375,0.28125 1.07812,0.28125 0.90625,0 1.35938,-0.46875 0.46875,-0.48438 0.46875,-1.40625 v -0.875 q -0.20313,0.15625 -0.53125,0.25 -0.32813,0.0781 -1.20313,0.20312 -0.76562,0.0937 -1.14062,0.40625 -0.35938,0.29688 -0.35938,0.82813 z m 12.09375,-6.14063 q 0.15625,0 0.28125,0.0312 0.125,0.0156 0.23438,0.0469 v 2.10937 q -0.20313,-0.0312 -0.39063,-0.0469 -0.17187,-0.0312 -0.42187,-0.0312 -1.15625,0 -1.70313,0.70312 -0.54687,0.70313 -0.54687,1.89063 v 3.79687 h -2.26563 v -8.28125 h 2.15625 v 1.54688 h 0.0312 q 0.35938,-0.8125 1.0625,-1.28125 0.71875,-0.48438 1.5625,-0.48438 z m 3.74219,-2.92187 v 1.85937 h -2.26563 v -1.85937 z m 0,3.14062 v 8.28125 h -2.26563 v -8.28125 z m 5.59375,-0.21875 q 1.82812,0 2.71875,0.60938 0.90625,0.59375 0.90625,1.6875 v 4.4375 q 0,0.5 0.0625,1 0.0625,0.5 0.21875,0.76562 H 57.1618 q -0.0625,-0.1875 -0.10937,-0.39062 -0.0469,-0.20313 -0.0625,-0.40625 -0.46875,0.5 -1.1875,0.76562 -0.70313,0.26563 -1.59375,0.26563 -1.28125,0 -2.04688,-0.64063 -0.76562,-0.65625 -0.76562,-1.85937 0,-1.15625 0.71875,-1.76563 0.71875,-0.60937 2.625,-0.82812 1.3125,-0.125 1.73437,-0.3125 0.42188,-0.20313 0.42188,-0.70313 0,-0.54687 -0.32813,-0.82812 -0.3125,-0.28125 -1.125,-0.28125 -0.70312,0 -1.07812,0.3125 -0.375,0.29687 -0.4375,0.9375 h -2.28125 q 0.0937,-1.35938 1.125,-2.0625 1.03125,-0.70313 2.78125,-0.70313 z m -1.89063,6.14063 q 0,0.5 0.32813,0.78125 0.34375,0.28125 1.07812,0.28125 0.90625,0 1.35938,-0.46875 0.46875,-0.48438 0.46875,-1.40625 v -0.875 q -0.20313,0.15625 -0.53125,0.25 -0.32813,0.0781 -1.20313,0.20312 -0.76562,0.0937 -1.14062,0.40625 -0.35938,0.29688 -0.35938,0.82813 z m 12.01563,-6.14063 q 1.59375,0 2.29687,0.8125 0.71875,0.79688 0.71875,2.51563 v 5.17187 h -2.26562 v -4.75 q 0,-0.96875 -0.34375,-1.45312 -0.32813,-0.5 -1.10938,-0.5 -0.95312,0 -1.35937,0.5625 -0.40625,0.5625 -0.40625,1.71875 v 4.42187 h -2.26563 v -8.28125 h 2.15625 v 1.15625 h 0.0469 q 0.40625,-0.65625 1.0625,-1.01562 0.67187,-0.35938 1.46875,-0.35938 z m 7.625,-2.25 v 2.46875 h 1.65625 v 1.53125 h -1.65625 v 4.14063 q 0,0.51562 0.1875,0.71875 0.1875,0.1875 0.76562,0.1875 0.20313,0 0.375,-0.0156 0.1875,-0.0156 0.32813,-0.0469 v 1.78125 q -0.28125,0.0469 -0.625,0.0625 -0.34375,0.0156 -0.6875,0.0156 -1.46875,0 -2.04688,-0.5 -0.57812,-0.51562 -0.57812,-1.42187 v -4.92188 h -1.375 v -1.53125 h 1.375 v -2.46875 z"
       fill-rule="nonzero"
       id="path76" />
    <path
       fill="#ffffff"
       d="m 33.91962,256.84418 v 11.42187 h -2.17188 v -1.0625 h -0.0312 q -0.35937,0.64063 -1.01562,0.96875 -0.64063,0.32813 -1.48438,0.32813 -1.70312,0 -2.71875,-1.25 -1,-1.25 -1,-3.20313 0,-1.84375 0.98438,-3.0625 1,-1.21875 2.6875,-1.21875 0.76562,0 1.40625,0.3125 0.64062,0.3125 1.03125,0.92188 h 0.0312 v -4.15625 z m -6.15625,7.26562 q 0,1.15625 0.53125,1.92188 0.54687,0.75 1.46875,0.75 0.95312,0 1.45312,-0.70313 0.5,-0.70312 0.5,-1.96875 0,-1.21875 -0.5,-1.92187 -0.48437,-0.70313 -1.45312,-0.70313 -0.95313,0 -1.48438,0.70313 -0.51562,0.70312 -0.51562,1.92187 z m 11.66406,-4.34375 q 1.82813,0 2.71875,0.60938 0.90625,0.59375 0.90625,1.6875 v 4.4375 q 0,0.5 0.0625,1 0.0625,0.5 0.21875,0.76562 h -2.29687 q -0.0625,-0.1875 -0.10938,-0.39062 -0.0469,-0.20313 -0.0625,-0.40625 -0.46875,0.5 -1.1875,0.76562 -0.70312,0.26563 -1.59375,0.26563 -1.28125,0 -2.04687,-0.64063 -0.76563,-0.65625 -0.76563,-1.85937 0,-1.15625 0.71875,-1.76563 0.71875,-0.60937 2.625,-0.82812 1.3125,-0.125 1.73438,-0.3125 0.42187,-0.20313 0.42187,-0.70313 0,-0.54687 -0.32812,-0.82812 -0.3125,-0.28125 -1.125,-0.28125 -0.70313,0 -1.07813,0.3125 -0.375,0.29687 -0.4375,0.9375 h -2.28125 q 0.0937,-1.35938 1.125,-2.0625 1.03125,-0.70313 2.78125,-0.70313 z m -1.89062,6.14063 q 0,0.5 0.32812,0.78125 0.34375,0.28125 1.07813,0.28125 0.90625,0 1.35937,-0.46875 0.46875,-0.48438 0.46875,-1.40625 v -0.875 q -0.20312,0.15625 -0.53125,0.25 -0.32812,0.0781 -1.20312,0.20312 -0.76563,0.0937 -1.14063,0.40625 -0.35937,0.29688 -0.35937,0.82813 z m 10.15625,-8.39063 v 2.46875 h 1.65625 v 1.53125 h -1.65625 v 4.14063 q 0,0.51562 0.1875,0.71875 0.1875,0.1875 0.76562,0.1875 0.20313,0 0.375,-0.0156 0.1875,-0.0156 0.32813,-0.0469 v 1.78125 q -0.28125,0.0469 -0.625,0.0625 -0.34375,0.0156 -0.6875,0.0156 -1.46875,0 -2.04688,-0.5 -0.57812,-0.51562 -0.57812,-1.42187 v -4.92188 h -1.375 v -1.53125 h 1.375 v -2.46875 z m 6.55468,2.25 q 1.82813,0 2.71875,0.60938 0.90625,0.59375 0.90625,1.6875 v 4.4375 q 0,0.5 0.0625,1 0.0625,0.5 0.21875,0.76562 h -2.29687 q -0.0625,-0.1875 -0.10938,-0.39062 -0.0469,-0.20313 -0.0625,-0.40625 -0.46875,0.5 -1.1875,0.76562 -0.70312,0.26563 -1.59375,0.26563 -1.28125,0 -2.04687,-0.64063 -0.76563,-0.65625 -0.76563,-1.85937 0,-1.15625 0.71875,-1.76563 0.71875,-0.60937 2.625,-0.82812 1.3125,-0.125 1.73438,-0.3125 0.42187,-0.20313 0.42187,-0.70313 0,-0.54687 -0.32812,-0.82812 -0.3125,-0.28125 -1.125,-0.28125 -0.70313,0 -1.07813,0.3125 -0.375,0.29687 -0.4375,0.9375 h -2.28125 q 0.0937,-1.35938 1.125,-2.0625 1.03125,-0.70313 2.78125,-0.70313 z m -1.89062,6.14063 q 0,0.5 0.32812,0.78125 0.34375,0.28125 1.07813,0.28125 0.90625,0 1.35937,-0.46875 0.46875,-0.48438 0.46875,-1.40625 v -0.875 q -0.20312,0.15625 -0.53125,0.25 -0.32812,0.0781 -1.20312,0.20312 -0.76563,0.0937 -1.14063,0.40625 -0.35937,0.29688 -0.35937,0.82813 z m 15.50781,-9.0625 q 1.64063,0 2.73438,0.98437 1.10937,0.96875 1.10937,2.51563 0,1.07812 -0.51562,1.9375 -0.51563,0.85937 -2.17188,1.90625 -1.14062,0.73437 -1.6875,1.21875 -0.54687,0.46875 -0.85937,0.90625 h 5.29687 v 1.95312 h -8.21875 q 0,-1.10937 0.39063,-1.96875 0.39062,-0.85937 1.125,-1.53125 0.75,-0.67187 2.82812,-2.0625 0.79688,-0.51562 1.17188,-1.04687 0.375,-0.53125 0.375,-1.14063 0,-0.75 -0.46875,-1.23437 -0.45313,-0.48438 -1.21875,-0.48438 -0.84375,0 -1.29688,0.6875 -0.45312,0.6875 -0.48437,1.875 h -2.17188 v -0.20312 q 0,-1.95313 1.10938,-3.125 1.10937,-1.1875 2.95312,-1.1875 z"
       fill-rule="nonzero"
       id="path77" />
    <path
       fill="#000000"
       fill-opacity="0"
       d="M 8.38846,1.45932 H 450.71918 V 43.63255 H 8.38846 Z"
       fill-rule="evenodd"
       id="path78" />
    <path
       fill="#6aa84f"
       d="m 42.49716,15.952446 q 3.10937,0 4.98437,1.453125 1.875,1.4375 1.875,4.0625 h -3.65625 q -0.0781,-1.28125 -0.875,-1.921875 -0.79687,-0.65625 -2.48437,-0.65625 -1.14063,0 -1.875,0.5 -0.73438,0.5 -0.73438,1.4375 0,0.640625 0.29688,0.96875 0.3125,0.3125 1.25,0.65625 0.95312,0.34375 4.125,1.09375 2.125,0.515625 3.3125,1.75 1.20312,1.234375 1.20312,3.109375 0,2.484375 -1.85937,3.999999 -1.85938,1.5 -5.25,1.5 -3.23438,0 -5.28125,-1.59375 -2.03125,-1.593749 -2.03125,-4.406249 v -0.09375 h 3.64062 q 0.0312,1.59375 1.0625,2.390625 1.04688,0.78125 2.73438,0.78125 1.53125,0 2.4375,-0.5625 0.90625,-0.5625 0.90625,-1.578125 0,-0.828125 -0.70313,-1.359375 -0.6875,-0.53125 -2.21875,-0.921875 -1.96875,-0.453125 -3.57812,-0.9375 -1.60938,-0.5 -2.65625,-1.625 -1.04688,-1.125 -1.04688,-2.859375 0,-2.3125 1.84375,-3.75 1.84375,-1.4375 4.57813,-1.4375 z m 12.82422,0.40625 v 2.8125 H 51.8995 v -2.8125 z m 0,4.734375 V 33.49932 H 51.8995 V 21.093071 Z m 9.79687,-0.328125 q 2.375,0 3.4375,1.203125 1.07813,1.1875 1.07813,3.765625 v 7.765624 h -3.40625 v -7.109374 q 0,-1.453125 -0.5,-2.203125 -0.5,-0.75 -1.6875,-0.75 -1.40625,0 -2.03125,0.84375 -0.60938,0.84375 -0.60938,2.59375 V 33.49932 H 57.99325 V 21.093071 h 3.23438 v 1.734375 h 0.0781 q 0.625,-1 1.60938,-1.53125 1,-0.53125 2.20312,-0.53125 z m 12.03907,0 q 1.35937,0 2.25,0.5 0.89062,0.5 1.45312,1.46875 h 0.0469 v -1.640625 h 3.23437 V 32.81182 q 0,2.5 -1.59375,3.9375 -1.57812,1.45313 -4.8125,1.45313 -2.1875,0 -3.76562,-1.04688 -1.5625,-1.04687 -1.71875,-2.9375 h 3.375 q 0.23437,0.90625 0.89062,1.29688 0.65625,0.40625 1.65625,0.40625 1.3125,0 2.01563,-0.79688 0.71875,-0.78125 0.71875,-2.1875 v -1.718749 h -0.0469 q -0.5,0.906249 -1.48437,1.421879 -0.96875,0.5 -2.23438,0.5 -2.51562,0 -3.90625,-1.656254 -1.39062,-1.671875 -1.39062,-4.578125 0,-2.625 1.45312,-4.375 1.45313,-1.765625 3.85938,-1.765625 z m -1.90625,6.09375 q 0,1.734375 0.71875,2.71875 0.71875,0.984375 2.03125,0.984375 1.34375,0 2.125,-0.984375 0.78125,-0.984375 0.78125,-2.453125 0,-1.8125 -0.73438,-2.796875 -0.73437,-1 -2.1875,-1 -1.26562,0 -2,0.96875 -0.73437,0.953125 -0.73437,2.5625 z m 15.14453,-10.5 V 33.49932 H 86.97372 V 16.358696 Z m 8.40625,4.40625 q 2.75,0 4.39062,1.890625 1.65625,1.890625 1.65625,4.828125 l -0.0156,0.640625 h -8.95313 q 0.0625,1.59375 0.82813,2.375 0.76562,0.765625 2.20312,0.765625 0.92188,0 1.70313,-0.46875 0.79687,-0.46875 1,-1.140625 h 3 q -0.6875,2.109375 -2.14063,3.156249 -1.4375,1.03125 -3.67187,1.03125 -2.875,0 -4.60938,-1.8125 -1.73437,-1.828124 -1.73437,-4.718749 0,-2.78125 1.78125,-4.65625 1.78125,-1.890625 4.5625,-1.890625 z m -2.92188,5.203125 h 5.53125 q -0.23437,-1.375 -0.875,-2 -0.64062,-0.640625 -1.84375,-0.640625 -1.25,0 -1.98437,0.703125 -0.71875,0.703125 -0.82813,1.9375 z"
       fill-rule="nonzero"
       id="path79" />
    <path
       fill="#3c78d8"
       d="m 132.5245,16.358696 4,11.78125 h 0.0469 l 3.78125,-11.734375 0.0312,-0.04687 h 5.28125 V 33.49933 h -3.53125 V 21.358696 h -0.0469 l -4.1875,12.140624 h -2.90625 l -4.20313,-12.031249 h -0.0469 V 33.49932 H 127.212 V 16.358696 Z m 19.50781,4.734375 v 7.109375 q 0,1.40625 0.48438,2.171875 0.5,0.765625 1.70312,0.765625 1.40625,0 2.01563,-0.84375 0.625,-0.859375 0.625,-2.59375 v -6.609375 h 3.40625 V 33.49932 h -3.25 v -1.718749 h -0.0625 q -0.64063,1.031249 -1.67188,1.546879 -1.01562,0.51562 -2.14062,0.51562 -2.3125,0 -3.42188,-1.17187 -1.09375,-1.187504 -1.09375,-3.812504 v -7.765625 z m 14.33594,-4.734375 V 33.49932 h -3.42188 V 16.358696 Z m 6.98437,1.015625 v 3.71875 h 2.5 v 2.28125 h -2.5 v 6.21875 q 0,0.765625 0.28125,1.0625 0.29688,0.296875 1.17188,0.296875 0.28125,0 0.54687,-0.01563 0.28125,-0.03125 0.5,-0.07813 v 2.671874 q -0.42187,0.0625 -0.95312,0.0781 -0.51563,0.0312 -1.01563,0.0312 -2.21875,0 -3.07812,-0.75 -0.85938,-0.76563 -0.85938,-2.125004 v -7.390625 h -2.0625 v -2.28125 h 2.0625 v -3.71875 z m 7.65235,-1.015625 v 2.8125 h -3.42188 v -2.8125 z m 0,4.734375 V 33.49932 h -3.42188 V 21.093071 Z m 7.60937,-0.328125 q 1.35938,0 2.25,0.5 0.89063,0.5 1.45313,1.46875 h 0.0469 v -1.640625 h 3.23438 V 32.81182 q 0,2.5 -1.59375,3.9375 -1.57813,1.45313 -4.8125,1.45313 -2.1875,0 -3.76563,-1.04688 -1.5625,-1.04687 -1.71875,-2.9375 h 3.375 q 0.23438,0.90625 0.89063,1.29688 0.65625,0.40625 1.65625,0.40625 1.3125,0 2.01562,-0.79688 0.71875,-0.78125 0.71875,-2.1875 v -1.718749 h -0.0469 q -0.5,0.906249 -1.48438,1.421879 -0.96875,0.5 -2.23437,0.5 -2.51563,0 -3.90625,-1.656254 -1.39063,-1.671875 -1.39063,-4.578125 0,-2.625 1.45313,-4.375 1.45312,-1.765625 3.85937,-1.765625 z m -1.90625,6.09375 q 0,1.734375 0.71875,2.71875 0.71875,0.984375 2.03125,0.984375 1.34375,0 2.125,-0.984375 0.78125,-0.984375 0.78125,-2.453125 0,-1.8125 -0.73437,-2.796875 -0.73438,-1 -2.1875,-1 -1.26563,0 -2,0.96875 -0.73438,0.953125 -0.73438,2.5625 z m 17.36328,-6.09375 q 2.75,0 4.39063,1.890625 1.65625,1.890625 1.65625,4.828125 l -0.0156,0.640625 h -8.95312 q 0.0625,1.59375 0.82812,2.375 0.76563,0.765625 2.20313,0.765625 0.92187,0 1.70312,-0.46875 0.79688,-0.46875 1,-1.140625 h 3 q -0.6875,2.109375 -2.14062,3.156249 -1.4375,1.03125 -3.67188,1.03125 -2.875,0 -4.60937,-1.8125 -1.73438,-1.828124 -1.73438,-4.718749 0,-2.78125 1.78125,-4.65625 1.78125,-1.890625 4.5625,-1.890625 z m -2.92187,5.203125 h 5.53125 q -0.23438,-1.375 -0.875,-2 -0.64063,-0.640625 -1.84375,-0.640625 -1.25,0 -1.98438,0.703125 -0.71875,0.703125 -0.82812,1.9375 z m 18.09375,-5.203125 q 2.375,0 3.4375,1.203125 1.07812,1.1875 1.07812,3.765625 v 7.765624 h -3.40625 v -7.109374 q 0,-1.453125 -0.5,-2.203125 -0.5,-0.75 -1.6875,-0.75 -1.40625,0 -2.03125,0.84375 -0.60937,0.84375 -0.60937,2.59375 v 6.624999 h -3.40625 V 21.093071 h 3.23437 v 1.734375 h 0.0781 q 0.625,-1 1.60937,-1.53125 1,-0.53125 2.20313,-0.53125 z"
       fill-rule="nonzero"
       id="path80" />
    <path
       fill="#674ea7"
       d="m 254.3956,15.952446 q 2.92187,0 4.96875,1.65625 2.0625,1.640625 2.40625,4.515625 h -3.64063 q -0.25,-1.359375 -1.34375,-2.171875 -1.07812,-0.828125 -2.40625,-0.828125 -2.20312,0 -3.4375,1.609375 -1.21875,1.609375 -1.21875,4.265625 0,2.546875 1.21875,4.140625 1.21875,1.59375 3.45313,1.59375 1.625,0 2.625,-1 1.01562,-1 1.25,-2.828125 h 3.65625 q -0.32813,3.265625 -2.375,5.140629 -2.04688,1.85937 -5.15625,1.85937 -2.46875,0 -4.40625,-1.125 -1.92188,-1.140624 -2.96875,-3.203124 -1.04691,-2.0625 -1.04691,-4.578125 0,-3.953125 2.29691,-6.5 2.3125,-2.546875 6.125,-2.546875 z m 15.77338,4.8125 q 2.92187,0 4.67187,1.796875 1.76563,1.796875 1.76563,4.75 0,2.96875 -1.78125,4.749999 -1.78125,1.78125 -4.65625,1.78125 -2.89063,0 -4.65625,-1.79687 -1.74994,-1.796879 -1.74994,-4.734379 0,-2.9375 1.73431,-4.734375 1.73438,-1.8125 4.67188,-1.8125 z m -3,6.546875 q 0,1.953125 0.79687,2.953125 0.8125,1 2.20313,1 1.45312,0 2.23437,-1.03125 0.78125,-1.03125 0.78125,-2.921875 0,-1.859375 -0.76562,-2.921875 -0.75,-1.0625 -2.28125,-1.0625 -1.35938,0 -2.17188,1 -0.79687,0.984375 -0.79687,2.984375 z m 15.03515,-10.953125 v 6.46875 h 0.0781 q 0.54687,-0.9375 1.53125,-1.5 0.98437,-0.5625 2.10937,-0.5625 2.375,0 3.4375,1.203125 1.07813,1.203125 1.07813,3.765625 v 7.765624 h -3.40625 v -7.109374 q 0,-1.453125 -0.5,-2.203125 -0.5,-0.75 -1.6875,-0.75 -1.40625,0 -2.03125,0.84375 -0.60938,0.84375 -0.60938,2.59375 v 6.624999 h -3.40625 V 16.358696 Z m 16.85156,4.40625 q 2.92188,0 4.67188,1.796875 1.76562,1.796875 1.76562,4.75 0,2.96875 -1.78125,4.749999 -1.78125,1.78125 -4.65625,1.78125 -2.89062,0 -4.65625,-1.79687 -1.75,-1.796879 -1.75,-4.734379 0,-2.9375 1.73438,-4.734375 1.73437,-1.8125 4.67187,-1.8125 z m -3,6.546875 q 0,1.953125 0.79688,2.953125 0.8125,1 2.20312,1 1.45313,0 2.23438,-1.03125 0.78125,-1.03125 0.78125,-2.921875 0,-1.859375 -0.76563,-2.921875 -0.75,-1.0625 -2.28125,-1.0625 -1.35937,0 -2.17187,1 -0.79688,0.984375 -0.79688,2.984375 z m 18.86328,-6.546875 q 0.21875,0 0.40625,0.03125 0.1875,0.01563 0.35938,0.07813 v 3.171875 q -0.29688,-0.0625 -0.57813,-0.09375 -0.26562,-0.03125 -0.64062,-0.03125 -1.71875,0 -2.54688,1.0625 -0.82812,1.046875 -0.82812,2.8125 V 33.49933 H 307.6846 V 21.093071 h 3.23437 v 2.296875 h 0.0469 q 0.54687,-1.21875 1.60937,-1.921875 1.07813,-0.703125 2.34375,-0.703125 z m 6.48829,-3.390625 v 3.71875 h 2.5 v 2.28125 h -2.5 v 6.21875 q 0,0.765625 0.28125,1.0625 0.29687,0.296875 1.17187,0.296875 0.28125,0 0.54688,-0.01563 0.28125,-0.03125 0.5,-0.07813 v 2.671874 q -0.42188,0.0625 -0.95313,0.0781 -0.51562,0.0312 -1.01562,0.0312 -2.21875,0 -3.07813,-0.75 -0.85937,-0.76563 -0.85937,-2.125004 v -7.390625 h -2.0625 v -2.28125 h 2.0625 v -3.71875 z"
       fill-rule="nonzero"
       id="path81" />
    <path
       fill="#bf9000"
       d="m 347.93854,16.358696 3.82812,12.046875 h 0.0469 l 3.85937,-12.046875 h 3.89063 l -5.6875,17.140624 h -4.25 l -5.5625,-17.140624 z m 17.46875,4.40625 q 2.75,0 4.09375,0.90625 1.34375,0.890625 1.34375,2.53125 v 6.65625 q 0,0.75 0.0937,1.500004 0.10937,0.75 0.34375,1.14062 h -3.46875 q -0.0937,-0.28125 -0.15625,-0.57812 -0.0625,-0.29688 -0.0781,-0.60938 -0.71875,0.73438 -1.78125,1.14063 -1.0625,0.39062 -2.39062,0.39062 -1.92188,0 -3.07813,-0.96875 -1.14062,-0.968749 -1.14062,-2.765624 0,-1.734375 1.07812,-2.65625 1.07813,-0.921875 3.92188,-1.234375 1.98437,-0.1875 2.60937,-0.484375 0.64063,-0.296875 0.64063,-1.03125 0,-0.84375 -0.5,-1.25 -0.48438,-0.421875 -1.70313,-0.421875 -1.04687,0 -1.60937,0.453125 -0.5625,0.453125 -0.65625,1.421875 h -3.40625 q 0.14062,-2.03125 1.67187,-3.078125 1.54688,-1.0625 4.17188,-1.0625 z m -2.82813,9.203125 q 0,0.734375 0.5,1.15625 0.51563,0.421875 1.59375,0.421875 1.35938,0 2.0625,-0.703125 0.70313,-0.71875 0.70313,-2.09375 v -1.328125 q -0.3125,0.25 -0.8125,0.375 -0.5,0.125 -1.79688,0.3125 -1.15625,0.15625 -1.70312,0.609375 -0.54688,0.4375 -0.54688,1.25 z m 18.14063,-9.203125 q 0.21875,0 0.40625,0.03125 0.1875,0.01563 0.35937,0.07813 v 3.171875 q -0.29687,-0.0625 -0.57812,-0.09375 -0.26563,-0.03125 -0.64063,-0.03125 -1.71875,0 -2.54687,1.0625 -0.82813,1.046875 -0.82813,2.8125 v 5.703129 h -3.40625 V 21.093071 h 3.23438 v 2.296875 h 0.0469 q 0.54688,-1.21875 1.60938,-1.921875 1.07812,-0.703125 2.34375,-0.703125 z m 5.62109,-4.40625 v 2.8125 h -3.42187 v -2.8125 z m 0,4.734375 V 33.49932 h -3.42187 V 21.093071 Z m 8.375,-0.328125 q 2.75,0 4.09375,0.90625 1.34375,0.890625 1.34375,2.53125 v 6.65625 q 0,0.75 0.0937,1.500004 0.10938,0.75 0.34375,1.14062 h -3.46875 q -0.0937,-0.28125 -0.15625,-0.57812 -0.0625,-0.29688 -0.0781,-0.60938 -0.71875,0.73438 -1.78125,1.14063 -1.0625,0.39062 -2.39063,0.39062 -1.92187,0 -3.07812,-0.96875 -1.14063,-0.968749 -1.14063,-2.765624 0,-1.734375 1.07813,-2.65625 1.07812,-0.921875 3.92187,-1.234375 1.98438,-0.1875 2.60938,-0.484375 0.64062,-0.296875 0.64062,-1.03125 0,-0.84375 -0.5,-1.25 -0.48437,-0.421875 -1.70312,-0.421875 -1.04688,0 -1.60938,0.453125 -0.5625,0.453125 -0.65625,1.421875 h -3.40625 q 0.14063,-2.03125 1.67188,-3.078125 1.54687,-1.0625 4.17187,-1.0625 z m -2.82812,9.203125 q 0,0.734375 0.5,1.15625 0.51562,0.421875 1.59375,0.421875 1.35937,0 2.0625,-0.703125 0.70312,-0.71875 0.70312,-2.09375 v -1.328125 q -0.3125,0.25 -0.8125,0.375 -0.5,0.125 -1.79687,0.3125 -1.15625,0.15625 -1.70313,0.609375 -0.54687,0.4375 -0.54687,1.25 z m 18.03125,-9.203125 q 2.375,0 3.4375,1.203125 1.07812,1.1875 1.07812,3.765625 v 7.765624 h -3.40625 v -7.109374 q 0,-1.453125 -0.5,-2.203125 -0.5,-0.75 -1.6875,-0.75 -1.40625,0 -2.03125,0.84375 -0.60937,0.84375 -0.60937,2.59375 v 6.624999 h -3.40625 V 21.093071 h 3.23437 v 1.734375 h 0.0781 q 0.625,-1 1.60937,-1.53125 1,-0.53125 2.20313,-0.53125 z m 11.41406,-3.390625 v 3.71875 h 2.5 v 2.28125 h -2.5 v 6.21875 q 0,0.765625 0.28125,1.0625 0.29688,0.296875 1.17188,0.296875 0.28125,0 0.54687,-0.01563 0.28125,-0.03125 0.5,-0.07813 v 2.671874 q -0.42187,0.0625 -0.95312,0.0781 -0.51563,0.0312 -1.01563,0.0312 -2.21875,0 -3.07812,-0.75 -0.85938,-0.76563 -0.85938,-2.125004 v -7.390625 h -2.0625 v -2.28125 h 2.0625 v -3.71875 z"
       fill-rule="nonzero"
       id="path82" />
  </g>
</svg>
